<?xml version="1.0" encoding="utf-8"?>
<!-- Generator: Adobe Illustrator 22.0.1, SVG Export Plug-In . SVG Version: 6.00 Build 0)  -->
<svg version="1.1" id="Layer_1" xmlns="http://www.w3.org/2000/svg" xmlns:xlink="http://www.w3.org/1999/xlink" x="0px" y="0px"
	 viewBox="0 0 594 594" style="enable-background:new 0 0 594 594;" xml:space="preserve">
<style type="text/css">
	.st0{fill:#FF5F2C;}
	.st1{fill:#6E1953;}
	.st2{fill:#E0E0E0;}
	.st3{fill:#D1D1D1;}
</style>
<g>
	<g>
		<path class="st0" d="M29.9,528.5l-5.2,18.6h-17l22.2-72.6h21.5l22.5,72.6H56.2l-5.6-18.6H29.9z M48.3,516.2l-4.5-15.4
			c-1.3-4.3-2.6-9.7-3.7-14h-0.2c-1.1,4.3-2.2,9.8-3.3,14l-4.3,15.4H48.3z"/>
		<path class="st0" d="M89,475.5c5.1-0.9,12.2-1.5,22.2-1.5c10.1,0,17.3,1.9,22.2,5.8c4.6,3.7,7.8,9.7,7.8,16.8s-2.4,13.1-6.7,17.2
			c-5.6,5.3-13.9,7.6-23.6,7.6c-2.2,0-4.1-0.1-5.6-0.3V547H89V475.5z M105.2,508.4c1.4,0.3,3.1,0.4,5.5,0.4
			c8.7,0,14.1-4.4,14.1-11.8c0-6.7-4.6-10.7-12.8-10.7c-3.3,0-5.6,0.3-6.8,0.6L105.2,508.4L105.2,508.4z"/>
		<path class="st0" d="M156.9,475.5c5.1-0.9,12.2-1.5,22.2-1.5c10.1,0,17.3,1.9,22.2,5.8c4.6,3.7,7.8,9.7,7.8,16.8
			s-2.4,13.1-6.7,17.2c-5.6,5.3-13.9,7.6-23.6,7.6c-2.2,0-4.1-0.1-5.6-0.3V547h-16.3V475.5z M173.2,508.4c1.4,0.3,3.1,0.4,5.5,0.4
			c8.7,0,14.1-4.4,14.1-11.8c0-6.7-4.6-10.7-12.8-10.7c-3.3,0-5.6,0.3-6.8,0.6L173.2,508.4L173.2,508.4z"/>
		<path class="st1" d="M284.7,519.3c-0.3-8.7-0.6-19.3-0.6-29.8h-0.3c-2.3,9.3-5.3,19.6-8.1,28.1l-8.8,28.3H254l-7.8-28.1
			c-2.4-8.5-4.8-18.8-6.6-28.3h-0.2c-0.4,9.8-0.8,21-1.3,30l-1.3,27.6h-15.2l4.6-72.6h21.9l7.1,24.2c2.3,8.4,4.5,17.4,6.1,25.9h0.3
			c2-8.4,4.5-18,6.9-26.1l7.8-24.1h21.4l4,72.6h-16L284.7,519.3z"/>
		<path class="st1" d="M336.4,528.5l-5.2,18.6h-17l22.2-72.6h21.5l22.5,72.6h-17.7l-5.6-18.6H336.4z M354.8,516.2l-4.5-15.4
			c-1.3-4.3-2.6-9.7-3.7-14h-0.2c-1.1,4.3-2.2,9.8-3.3,14l-4.3,15.4H354.8z"/>
		<path class="st1" d="M395.5,474.5h16.3v32.1h0.3c1.6-2.8,3.3-5.4,5-8l16.5-24.1h20.1l-24,30.9l25.3,41.7h-19.2L418,515.8l-6.2,7.6
			v23.7h-16.3V474.5z"/>
		<path class="st1" d="M510.2,516.4h-26.7v17.2h29.8v13.5H467v-72.6h44.8V488h-28.3v15h26.7V516.4z"/>
		<path class="st1" d="M529.9,475.5c5.3-0.9,13.1-1.5,21.9-1.5c10.8,0,18.3,1.6,23.5,5.7c4.3,3.4,6.7,8.5,6.7,15.2
			c0,9.3-6.6,15.6-12.8,17.9v0.3c5.1,2,7.9,6.9,9.7,13.6c2.3,8.2,4.5,17.7,5.9,20.5H568c-1.2-2-2.9-8-5.1-16.9
			c-1.9-9-5.1-11.5-11.7-11.6h-5v28.5h-16.3L529.9,475.5L529.9,475.5z M546.1,506.7h6.5c8.2,0,13-4.1,13-10.4
			c0-6.7-4.5-10-12.1-10.1c-4,0-6.2,0.3-7.4,0.5V506.7z"/>
	</g>
	<g>
		<g>
			<g>
				<path class="st2" d="M346.4,94.9c2.6,0.9,5.4,1.5,7.9,2.7c5.4,2.5,10.8,5.2,16.1,7.9c5.1,2.7,10.3,1.9,14.3-2.2
					c3.3-3.4,6.7-6.8,10.1-10.1c2.9-2.7,6.4-3.7,10.3-3.2c0.6,0.1,1.2,0.1,1.9-0.1c-2.1-1.5-4.2-3.1-6.3-4.6
					c0.1-0.2,0.2-0.3,0.4-0.5c1.1,0.7,2.3,1.4,3.3,2.2c5.6,4.6,11.1,9.2,16.7,13.8c0.3,0.3,0.3,1,0.6,1.4c0.4,0.6,0.8,1.3,1.4,1.8
					c1,0.7,1.3,2.8,3.3,1.9c0.1,0,0.6,0.5,0.6,0.8c0.4,2,2.2,4.1,4.1,4.4c0.3,0.1,0.6,0.3,0.8,0.6c5.3,6.8,10.5,13.5,15.7,20.3
					c0.3,0.3,0.4,0.8,0.2,1.4c-3.5-4.7-6.9-9.4-10.6-14.6c0.2,2.3,0.6,4,0.5,5.7c-0.1,3.5-1.6,6.5-4.1,9c-3.1,3.1-6,6.3-9.2,9.2
					c-4,3.6-4.6,9.7-1.8,14.6c2.9,5.2,5.7,10.4,8,15.9c2.3,5.4,4,11,5.6,16.6c1.5,5.1,5.4,9.6,12.6,9.2c3.9-0.2,7.8-0.1,11.7-0.2
					c8.2-0.1,13.8,5.2,13.9,13.5c0.1,10,0.1,20.1,0.1,30.1c0,0.3,0,0.7,0.4,1c1.3-6.8,1-13.7,1.1-20.7c0.2,0,0.5,0,0.7,0
					c0,3.4,0,6.7-0.1,10.1s-0.2,6.7-0.3,10.4c1.2-0.2,2.4-0.4,3.6-0.6c0,0.2,0.1,0.4,0.1,0.5c-0.8,0.2-1.6,0.6-2.5,0.7
					c-1.1,0.1-1.6,0.6-1.6,1.7c-0.1,1.7-0.4,3.4-0.6,5.1c-0.2,0-0.4,0-0.6-0.1c0.2-2,0.3-4,0.5-6c-0.2-0.1-0.3-0.1-0.5-0.2
					c-0.2,0.4-0.6,0.7-0.7,1.1c-1.9,5.9-6.5,9.3-12.6,9.3c-4.8,0-9.5,0-14.3,0.1c-4.2,0-8.4,3-9.9,7.3c-1.6,4.6-3,9.2-4.5,13.8
					c-0.2,0.7-0.8,1.3-1.2,2c-1.7,0.7-3.5,1.5-5.2,2.2c-0.9-0.6-1.7-1.3-2.6-1.9l0,0c0.8,0,1.7-0.1,2.8-0.1c0.2-0.4,0.5-1.1,0.7-1.8
					c1.5-4.7,3.2-9.4,4.5-14.2c2-7.4,8-12.2,15.6-12.4c5-0.1,9.9-0.1,14.9-0.2c2.9-0.1,4.9-1.6,6.3-4.2c-0.8-0.1-1.4-0.2-2.2-0.3
					c3.1-1.5,3.1-1.5,3.1-4.8c0-9.5-0.1-19-0.1-28.4c0-4.5-3.4-7.9-7.9-8c-4.5,0-8.9,0-13.4,0c-8.2,0.1-14.3-4.6-16.6-12.4
					c-1.6-5.3-3.4-10.5-5.3-16.2c-4.6,2.1-8.8,4-13.1,6c-0.1-0.3-0.2-0.5-0.3-0.8c4.3-1.8,8.5-3.6,12.8-5.5
					c-0.1-0.4-0.2-0.8-0.3-1.1c-2.4-4.9-4.7-9.9-7.4-14.6c-3.6-6.3-3.1-14,1.7-19.3c3.4-3.7,7.1-7.2,10.7-10.9c3-3.1,3-7.9,0-10.9
					c-5.6-5.6-11.3-11.2-16.9-16.8c-1.6-1.6-3.2-3.2-4.9-4.7c-2.3-2-5.2-3.5-8.2,0.2c-0.9,1-1.9,1.9-2.9,2.9
					c-0.2-0.2-0.3-0.3-0.5-0.5c1.3-1.3,2.5-2.5,3.8-3.8c-0.9,0.1-1.7,0.4-2.3,0.9c-3.2,3.1-6.4,6.1-9.3,9.3
					c-6,6.7-13.7,7.3-19.4,4.6c-4.5-2.1-9-4.5-13.4-6.9c-3.2-1.8-3.7-1.7-5.1,1.3c0,0-0.2,0-0.3,0c0-0.2-0.1-0.4-0.1-0.5
					c1.1-1.9,0.8-3.2-1.5-3.7c-0.3-0.1-0.5-0.5-0.8-0.7C347.9,98.4,347.1,96.7,346.4,94.9z"/>
			</g>
			<g>
				<path class="st2" d="M426.3,281.6l-2.7-2h-0.8l0.1-3.1l1.3,1l1.8-0.1c0.1-0.3,0.3-0.7,0.4-1.1c0.4-1.3,0.9-2.7,1.3-4
					c1.1-3.3,2.2-6.7,3.2-10.1c2.2-7.9,8.6-13,16.6-13.1c2.5-0.1,4.9-0.1,7.4-0.1s5,0,7.5-0.1c1.9,0,3.4-0.8,4.6-2.4l-3.9-0.6l3-1.4
					c2.6-1.2,2.6-1.2,2.5-3.9c0-9.5-0.1-19-0.1-28.5c0-3.9-3-6.9-6.9-6.9c-4.2,0-8.6,0-13.4,0c-8.6,0.1-15.2-4.8-17.6-13.1
					c-1.1-3.6-2.2-7.1-3.5-10.9c-0.5-1.4-0.9-2.8-1.4-4.2l-13,5.9l-1.2-2.7l13-5.5c0,0,0,0,0-0.1c-0.7-1.4-1.4-2.9-2.1-4.3
					c-1.6-3.4-3.3-6.9-5.2-10.2c-3.9-6.8-3.1-15.1,1.9-20.5c2-2.2,4.2-4.4,6.3-6.4c1.5-1.5,2.9-2.9,4.4-4.4c2.6-2.7,2.6-6.9,0-9.5
					c-5.3-5.3-10.7-10.6-16-15.9l-1.8-1.8c-1.3-1.3-2.6-2.6-3.9-3.7c-1.5-1.3-2.7-1.9-3.9-1.8c-1,0.1-2,0.7-2.9,1.8
					c-0.6,0.8-1.4,1.4-2.1,2.1c-0.3,0.3-0.6,0.6-0.9,0.9l-0.7,0.7l-1.2-1.2c-2.1,2.1-4.3,4.2-6.3,6.4c-6.8,7.5-15.1,7.5-20.6,4.9
					c-4.6-2.1-9-4.5-13.4-7c-0.7-0.4-2.1-1.2-2.5-1c-0.4,0.1-0.9,1.4-1.2,1.8c-0.2,0.4-0.6,0.6-1.1,0.6l-1,0.1l-0.2-1
					c-0.1-0.3-0.2-0.7,0.1-1.2c0.6-1,0.5-1.4,0.4-1.5c-0.1-0.3-0.6-0.5-1.3-0.7c-0.6-0.1-0.9-0.5-1.1-0.8c-0.1-0.1-0.1-0.1-0.2-0.2
					l-0.1-0.1l-3.2-7.5l2.1,0.7c0.8,0.3,1.6,0.5,2.5,0.8c1.8,0.6,3.7,1.1,5.5,1.9c5.3,2.4,10.8,5.1,16.2,8c4.7,2.5,9.4,1.7,13-2
					l0.2-0.2c3.2-3.3,6.6-6.7,10-10c2.7-2.5,6-3.8,9.7-3.6l-4.6-3.3l1.5-2.2l0.8,0.6c0.3,0.2,0.7,0.4,1,0.7c0.8,0.5,1.6,1,2.4,1.6
					c5.5,4.5,11.1,9.1,16.7,13.8c0.5,0.4,0.6,0.9,0.7,1.3c0,0.1,0.1,0.3,0.1,0.4l0.1,0.2c0.3,0.5,0.6,1,1,1.3
					c0.5,0.3,0.8,0.8,1.1,1.2c0.6,0.9,0.7,0.9,1.2,0.6l0.5-0.2l0.5,0.2c0.4,0.2,1,0.9,1.1,1.5c0.3,1.6,1.8,3.3,3.3,3.6
					c0.7,0.1,1.2,0.7,1.4,1c5.3,6.8,10.5,13.5,15.7,20.3c0.3,0.4,0.7,1.2,0.4,2.3l-0.6,2.1l-9.6-13.1c0.1,0.7,0.1,1.3,0.1,2
					c-0.1,3.6-1.6,6.9-4.4,9.7c-1,1-2,2.1-3.1,3.1c-2,2-4,4.2-6.2,6.1c-3.5,3.2-4.2,8.7-1.6,13.4c2.6,4.6,5.6,10.1,8.1,16
					c2.3,5.5,4.1,11.3,5.7,16.7c1,3.3,3.8,8.9,11.6,8.5c2.7-0.1,5.4-0.1,8-0.2c1.2,0,2.5,0,3.7,0c4.4,0,8.1,1.3,10.8,3.9
					s4.1,6.3,4.2,10.5c0,3.1,0.1,6.3,0.1,9.4h2.2v1c0,1,0,2.1,0,3.1c0,2.3,0,4.6-0.1,6.9c0,2.3-0.1,4.7-0.2,7.1l-0.1,2l3.3-0.6
					l0.6,2.4l-0.9,0.3c-0.2,0.1-0.5,0.2-0.7,0.2c-0.6,0.2-1.2,0.4-1.9,0.5c-0.6,0.1-0.7,0.1-0.7,0.7c0,1.2-0.2,2.5-0.4,3.7
					c-0.1,0.5-0.1,1-0.2,1.5l-0.1,1l-2.6-0.3l0.3-3c-2.5,4.7-6.9,7.3-12.5,7.4c-2.8,0-5.5,0-8.3,0c-2,0-4,0-6,0
					c-3.9,0-7.6,2.8-9,6.6c-1,2.7-1.9,5.6-2.7,8.3c-0.6,1.8-1.2,3.7-1.8,5.5c-0.2,0.6-0.6,1.2-0.9,1.6c-0.1,0.2-0.3,0.4-0.4,0.6
					l-0.2,0.3L426.3,281.6z M469.5,244.8l0.8,0.1l-0.7,1.3c-1.7,3.1-4.2,4.6-7.2,4.7c-2.5,0.1-5,0.1-7.5,0.1c-2.4,0-4.9,0-7.3,0.1
					c-7.1,0.1-12.7,4.6-14.7,11.6c-1,3.4-2.1,6.9-3.2,10.2c-0.4,1.3-0.9,2.7-1.3,4c-0.2,0.5-0.4,1-0.6,1.4c-0.1,0.1-0.1,0.3-0.2,0.4
					l3.4-1.4c0.1-0.1,0.2-0.3,0.3-0.4c0.3-0.4,0.5-0.8,0.7-1.1c0.6-1.8,1.2-3.6,1.7-5.5c0.9-2.8,1.8-5.6,2.7-8.4
					c1.6-4.6,6.1-7.9,10.9-7.9c2,0,4,0,6,0c2.8,0,5.5,0,8.3,0c5.7-0.1,9.8-3.1,11.7-8.6c0.1-0.4,0.4-0.8,0.6-1.1
					c0.1-0.1,0.1-0.2,0.2-0.3l0,0c-0.3-0.5-0.4-1-0.4-1.4c0-3.1,0-6.2,0-9.3c0-6.8,0-13.8-0.1-20.8c0-3.7-1.3-6.9-3.6-9.1
					c-2.3-2.3-5.5-3.4-9.3-3.4c-1.3,0-2.5,0-3.8,0c-2.6,0-5.3,0-8,0.1c-6.7,0.3-11.7-3.3-13.6-10c-1.6-5.4-3.3-11.1-5.6-16.5
					c-2.4-5.8-5.4-11.2-8-15.8c-3.1-5.5-2.3-12,2-15.9c2.1-1.9,4.1-4,6.1-6c1-1.1,2-2.1,3.1-3.2c2.4-2.4,3.7-5.2,3.8-8.3
					c0-1.1-0.1-2.2-0.3-3.5c-0.1-0.7-0.2-1.4-0.3-2.1v-0.1c-1.7-2.2-3.4-4.3-5.1-6.5c-0.1-0.1-0.2-0.2-0.2-0.2
					c-2.2-0.4-4.3-2.7-4.8-5c-1.7,0.4-2.5-0.9-3-1.6c-0.2-0.3-0.4-0.6-0.5-0.7c-0.7-0.5-1.2-1.2-1.6-1.9l-0.1-0.2
					c-0.2-0.3-0.3-0.7-0.4-1c0-0.1-0.1-0.2-0.1-0.3c-4.3-3.6-8.6-7.2-12.9-10.7h-0.1c-0.9,0.3-1.7,0.2-2.3,0.1
					c-3.8-0.5-7,0.5-9.5,2.9c-3.4,3.2-6.7,6.6-9.9,9.9l-0.2,0.2c-4.3,4.4-9.9,5.3-15.5,2.3c-5.4-2.8-10.8-5.5-16.1-7.9
					c-1.7-0.8-3.4-1.3-5.3-1.8c-0.1,0-0.3-0.1-0.4-0.1l1.3,3.1c0.1,0.1,0.1,0.1,0.2,0.2l0.1,0.1c1.3,0.3,2.2,0.9,2.6,1.8v0.1
					c0.1-0.1,0.2-0.1,0.4-0.2c1.1-0.4,2.3,0.2,4.1,1.2c4.4,2.4,8.8,4.8,13.3,6.9c4.9,2.3,12.2,2.3,18.2-4.4c2.3-2.6,4.8-5,7.2-7.3
					c0.7-0.7,1.4-1.4,2.1-2.1c0.7-0.7,1.7-1.1,2.9-1.2l1.1-0.1c0.7-0.4,1.4-0.6,2.1-0.7c2.2-0.2,4.1,1.2,5.4,2.3
					c1.4,1.2,2.7,2.5,4,3.8l1.8,1.8c5.4,5.3,10.7,10.6,16,15.9c3.4,3.4,3.4,8.8,0,12.4c-1.5,1.5-2.9,3-4.4,4.5
					c-2.1,2.1-4.2,4.2-6.2,6.4c-4.4,4.8-5,12-1.6,18.1c1.9,3.4,3.6,6.9,5.3,10.3c0.7,1.4,1.4,2.9,2.1,4.3c0.1,0.2,0.2,0.4,0.2,0.6
					l0.4-0.2l0.4,1.1c0.6,1.8,1.2,3.6,1.8,5.3c1.3,3.8,2.4,7.3,3.5,10.9c2.2,7.4,8,11.7,15.6,11.6c4.8-0.1,9.2-0.1,13.4,0
					c5,0,8.9,3.9,8.9,9c0,9.5,0.1,19,0.1,28.4C470.6,243,470.5,244,469.5,244.8z M351.8,105.1L351.8,105.1L351.8,105.1z"/>
			</g>
		</g>
		<g>
			<g>
				<path class="st2" d="M245.5,356.7c-0.8-0.2-1.6-0.2-2.3-0.5c-3.9-1.9-7.8-3.8-11.7-5.9c-5.8-3.1-10.5-2.5-15.1,2.2
					c-3.2,3.3-6.5,6.5-9.8,9.7c-5.1,4.9-12.9,4.4-18.4-1c-5.4-5.4-10.8-10.8-16.3-16.1c-0.4-0.4-1-0.5-1.4-0.7
					c0.2,0.5,0.2,1.1,0.6,1.5c5.6,5.5,11.3,11,16.9,16.5c0.5,0.5,1,1,1.3,1.6c-7.5-5.6-14-12.5-20.5-19.3c0.3-0.2,0.8-0.7,1.5-1.2
					c-0.8-0.9-1.6-1.7-2.4-2.5c-5.8-6.1-5.5-13.9,0.6-19.7c3-2.8,5.9-5.7,8.7-8.7c4.2-4.4,4.6-9.1,1.6-14.5
					c-2.3-4.2-4.8-8.4-6.6-12.9c-2.8-6.9-5.1-14-7.6-21.1c-1.5-4.4-5.5-7.6-10.2-7.6c-4.3-0.1-8.7-0.1-13,0
					c-5.7,0.1-10.2-1.8-13.1-6.8c-0.1-0.2-0.3-0.4-0.7-0.5c0.5,3.4,0.9,6.9,1.4,10.3c-0.2,0-0.4,0.1-0.6,0.1c-0.3-2.2-0.7-4.4-1-6.6
					c-0.3-2.4-0.6-4.7-0.8-7.1c-0.2-2.3-0.4-4.6-0.7-7.2c-2.5,0.7-4.9,1.3-7.3,1.9c-0.1-0.2-0.1-0.3-0.2-0.5c1.4-0.5,2.8-1,4.3-1.4
					c0.2-0.1,0.5-0.1,0.7-0.1c1.8-0.2,2.8-0.9,2.4-3.1c-0.2-1.3-0.2-2.6,0.7-4.1c0.7-1.2,1.1-3.8-0.6-5.4c-0.2-0.2-0.3-0.9-0.1-1.1
					c1.7-1.7,0.7-3.8,0.7-5.7c0-0.8-0.5-1.7-0.4-2.5c0.6-5.5,1.3-10.9,2-16.4c0-0.2,0-0.4-0.1-0.5l0,0c0.2,0.4,0.7,0.9,0.6,1.3
					c-0.2,2-0.6,4-0.6,6.2c0.3-0.4,0.6-0.7,0.9-1.1c2.6-3.6,6.2-5.5,10.7-5.5c4.4,0,8.8-0.1,13.2-0.1c5.9,0,10.1-3.1,11.7-8.9
					c0.7-2.4,1.4-4.8,2.1-7.2c0.1-0.4,0.4-0.7,0.6-1.1c1.7-0.7,3.5-1.5,5.2-2.2c0,0.5,0.2,1.1,0,1.6c-1.1,3.7-2.3,7.4-3.4,11.1
					c-2,7-8.2,11.7-15.6,11.7c-4.5,0-9.1,0-13.6,0c-5.1,0.1-8.3,3.1-8.3,8.2c0,5.4,0,10.9,0,16.3c0,2.2,0,4.5,0.1,6.7
					c3.1,0,6.1,0,9,0c0,0.2,0,0.4,0,0.6c-2.1,0-4.1,0-6.2,0.1c-2.8,0.1-2.8,0.1-2.8,2.9c0,0.9,0,1.7,0,2.6c-0.1,4.8,3.2,8.4,8,8.4
					c4.5,0,9.1-0.1,13.6-0.1c8.2,0,14.2,4.8,16.4,12.6c2.9,10.6,6.8,20.7,12.5,30.1c5.4,9,4,17.5-3.4,23.9c-2.9,2.5-5.5,5.4-8.1,8.2
					c-2.7,2.8-2.9,7.1-0.4,10.1c1.2,1.4,2.6,2.7,3.9,4c0.6-0.3,1.1-0.5,2-0.9c-0.6,0.9-0.9,1.3-1.2,1.8c5.9,5.8,11.7,11.7,17.6,17.3
					c3.1,3,7.3,2.9,10.4,0s6.1-5.9,8.9-9c5.7-6.2,12.8-7.9,20.1-4.4c5.6,2.7,11.1,5.5,16.6,8.3c0.2,0.5,0.4,1.1,0.6,1.6
					C248.2,355.5,246.9,356.1,245.5,356.7z"/>
			</g>
			<g>
				<path class="st2" d="M191.8,367l-3.1-2.3c-7.3-5.4-13.6-12-19.7-18.5l-1.7-1.8l1.5-1.2l-1.6-1.7c-3-3.2-4.6-6.8-4.5-10.6
					s1.9-7.4,5.1-10.5c3-2.8,5.9-5.7,8.6-8.7c3.8-4,4.2-8.2,1.5-13.3c-0.4-0.8-0.8-1.5-1.3-2.3c-1.9-3.4-3.9-7-5.4-10.7
					c-2.4-5.9-4.5-12.1-6.5-18l-1.1-3.1c-1.4-4.1-5.1-6.9-9.2-7c-5-0.1-9.1-0.1-13,0c-5.4,0.1-9.4-1.5-12.3-4.9l1,7.8l-2.6,0.4
					l-0.2-1c-0.1-0.7-0.2-1.3-0.3-2c-0.2-1.5-0.5-3.1-0.7-4.6c-0.3-2.4-0.6-4.8-0.8-7.1c-0.2-1.6-0.3-3.2-0.5-4.9l-0.1-1.1l-7,1.8
					l-0.8-2.4l2.1-0.7c1.1-0.4,2.1-0.7,3.2-1.1c0.3-0.1,0.5-0.1,0.8-0.1h0.2c0.8-0.1,1.2-0.3,1.4-0.5c0.2-0.3,0.2-0.9,0.1-1.4
					c-0.2-1.2-0.3-2.9,0.8-4.8c0.4-0.8,0.9-2.8-0.4-4.2c-0.4-0.4-0.5-1-0.5-1.4s0.1-0.9,0.4-1.2c0.8-0.8,0.8-1.7,0.6-3.2
					c-0.1-0.6-0.2-1.2-0.1-1.8c0-0.2-0.1-0.6-0.2-0.9c-0.1-0.5-0.3-1.1-0.2-1.7c0.4-3.9,0.9-7.8,1.4-11.6c0.2-1.6,0.4-3.2,0.6-4.7
					l-2.1-3.9l4,2.9v0.2c0,0.1,0.1,0.1,0.1,0.2c0.3,0.4,0.6,0.9,0.6,1.6c-0.1,0.5-0.1,1.1-0.2,1.6c-0.1,0.4-0.1,0.9-0.2,1.3
					c2.7-3,6.2-4.5,10.3-4.5c1.8,0,3.7,0,5.5,0c2.6,0,5.1,0,7.7,0h0.1c5.4,0,9.2-2.9,10.6-8.1c0.6-2.2,1.3-4.5,2-6.7l0.2-0.6
					c0.1-0.4,0.3-0.7,0.5-1c0.1-0.1,0.1-0.2,0.2-0.3l0.2-0.3l6.9-2.9v1.5c0,0.1,0,0.3,0,0.4c0,0.5,0.1,1-0.1,1.5
					c-0.5,1.7-1,3.4-1.5,5c-0.6,2-1.3,4-1.8,6c-2.2,7.5-8.7,12.4-16.5,12.5c-2,0-4,0-6,0c-2.5,0-5.1,0-7.6,0c-4.6,0-7.3,2.7-7.3,7.2
					c0,4.1,0,8.4,0,12.4v3.9c0,1.5,0,3.1,0,4.6v1.1h9l-0.1,2.6h-2.9c-1.4,0-2.9,0-4.3,0.1c-0.7,0-1.5,0-1.7,0.1c-0.1,0.3,0,1,0,1.7
					c0,0.9,0,1.7,0,2.6c-0.1,2.2,0.6,4.1,1.9,5.4s3,2,5.1,2c2.5,0,5,0,7.4,0c2,0,4.1,0,6.1,0c8.6,0,15.1,5,17.4,13.4
					c3.2,11.6,7.2,21.3,12.4,29.9c5.6,9.3,4.3,18.2-3.6,25.2c-2.3,2-4.5,4.4-6.6,6.6c-0.5,0.5-1,1-1.4,1.5c-2.3,2.5-2.5,6.2-0.4,8.7
					c0.8,1,1.7,1.8,2.6,2.7c0.2,0.2,0.5,0.5,0.7,0.7l4.7-2.1l-2.7,4.1c1.5,1.5,3.1,3,4.6,4.6c4,4,8.2,8.2,12.4,12.2
					c2.7,2.6,6.2,2.6,9,0c3-2.8,6-5.8,8.9-8.9c6.1-6.6,13.7-8.2,21.3-4.6c3.9,1.8,7.8,3.8,11.5,5.7c1.7,0.9,3.4,1.7,5.1,2.6l0.4,0.2
					l1,2.9l-5.2,2.2l-0.3-0.1c-0.2,0-0.4-0.1-0.7-0.1c-0.6-0.1-1.2-0.2-1.8-0.5l-1.6-0.8c-3.3-1.6-6.8-3.3-10.1-5.1
					c-5.4-2.9-9.7-2.3-13.9,2c-2.9,3-6.1,6.2-9.8,9.7c-4.6,4.4-11.3,4.8-16.9,1.3L191.8,367z M171.7,343.6c0.4,0.1,0.8,0.3,1.1,0.7
					c5.8,5.7,11.1,11,16.3,16.2c5.2,5.1,12.3,5.6,17,1c3.6-3.5,6.8-6.7,9.8-9.7c4.8-4.9,10.2-5.7,16.3-2.4c3.3,1.8,6.7,3.5,10,5.1
					l1.6,0.8c0.3,0.2,0.8,0.2,1.2,0.3c0.2,0,0.3,0,0.5,0.1l2.8-1.2l-0.1-0.3c-1.6-0.8-3.2-1.6-4.7-2.4c-3.8-1.9-7.6-3.9-11.5-5.7
					c-6.8-3.3-13.4-1.8-18.9,4.2c-2.9,3.1-5.9,6.2-9,9c-3.6,3.3-8.3,3.3-11.8,0c-4.2-4-8.4-8.2-12.4-12.2c-1.7-1.7-3.4-3.4-5.2-5.1
					l-0.6-0.6l0,0l-0.3-0.3c-0.4-0.4-0.8-0.8-1.2-1.2c-0.9-0.9-1.9-1.8-2.8-2.9c-2.8-3.4-2.6-8.2,0.5-11.4c0.5-0.5,1-1,1.4-1.5
					c2.1-2.3,4.4-4.7,6.8-6.8c7.1-6.2,8.2-14.2,3.2-22.6c-5.3-8.7-9.4-18.6-12.6-30.4c-2-7.4-7.8-11.8-15.4-11.9c-2,0-4.1,0-6.1,0
					c-2.5,0-5,0-7.5,0c-2.6,0-4.9-1-6.5-2.7c-1.7-1.7-2.5-4.1-2.5-6.8c0-0.9,0-1.7,0-2.5c0-1.2,0-2,0.2-2.6h-0.2v-3.1
					c0-1.5,0-3.1,0-4.6v-3.9c0-4.1,0-8.3,0-12.5c0-5.6,3.6-9.2,9.3-9.2c2.5,0,5.1,0,7.6,0c2,0,4,0,6,0c6.9,0,12.6-4.4,14.6-11
					c0.6-2,1.2-4,1.8-6.1c0.5-1.6,1-3.2,1.5-4.8l-3.5,1.5c0,0,0,0,0,0.1c-0.1,0.2-0.2,0.4-0.3,0.5l-0.2,0.6c-0.7,2.2-1.4,4.4-2,6.6
					c-1.7,6.1-6.3,9.6-12.6,9.6h-0.1c-2.6,0-5.1,0-7.7,0c-1.8,0-3.7,0-5.5,0c-4.1,0-7.4,1.7-9.8,5.1c-0.2,0.3-0.4,0.6-0.7,0.8
					l-1.1,1.3c-0.3,2.6-0.7,5.3-1,8c0,0.2,0.1,0.6,0.2,0.9c0.1,0.4,0.3,1,0.3,1.5s0.1,1,0.1,1.5c0.2,1.4,0.4,3.2-1,4.7l0,0
					c2,2.1,1.5,5.1,0.6,6.5c-0.8,1.3-0.7,2.4-0.6,3.4c0.1,0.9,0.1,1.6-0.1,2.2l0.3,3.5c0.2,1.7,0.3,3.3,0.5,4.9
					c0.1,0.8,0.2,1.6,0.2,2.4h0.1c0.6,0.2,1,0.5,1.3,1c2.5,4.4,6.5,6.4,12.2,6.3c3.9-0.1,8.1-0.1,13.1,0s9.4,3.4,11.1,8.3l1.1,3.1
					c2,5.9,4.1,12.1,6.5,17.9c1.5,3.6,3.4,7.1,5.3,10.5c0.4,0.8,0.9,1.5,1.3,2.3c3.2,5.8,2.6,11-1.8,15.7c-2.8,3-5.7,5.9-8.7,8.8
					c-2.8,2.7-4.4,5.8-4.5,9.1c-0.1,3.2,1.3,6.4,3.9,9.2l3.2,3.3L171.7,343.6z"/>
			</g>
		</g>
		<g>
			<g>
				<path class="st2" d="M346.4,94.9c0.7,1.8,1.5,3.5,2.2,5.3c-0.5,0-1.1,0.1-1.6,0c-4.2-1.3-8.4-2.6-12.6-3.9
					c-7-2.2-11.5-9.2-11.3-15.6c0.2-4.8,0-9.7-0.1-14.5c-0.1-3.8-3-6.8-6.8-7.2c-1.5-0.2-3.1-0.1-4.6-0.1c-8.7,0-17.5,0.1-26.2,0.1
					c-4.6,0-8.1,3.3-8.1,7.9c0,4.5,0,9.1,0,13.6c0,8.4-4.7,14.4-12.8,16.6c-10.9,3-21.3,7.3-31.1,13c-7.5,4.4-15.2,3.5-21.3-2.6
					c-3.1-3.1-6.2-6.2-9.4-9.3c-1.7-1.6-3.6-2.4-6-2.3c-2.7,0.1-4.5,1.7-6.2,3.4c-6.7,6.8-13.5,13.5-20.1,20.4
					c-3.3,3.4-3.2,7.7,0.2,11.1c2.9,2.9,5.8,5.8,8.8,8.6c6.6,6.2,7.7,13.5,3.4,21.4c-2.2,4.1-4.3,8.3-6.3,12.5
					c-1.4,3-1.3,2.6,1.4,3.8c0.5,0.2,0.9,0.8,1.3,1.2l0,0c-1.6-0.5-3.1-1-4.7-1.5c-0.8-1.8-1.6-3.6-2.5-5.4
					c2.1-4.3,3.9-8.7,6.2-12.9c3-5.5,2.5-10.5-1.9-14.8c-3.3-3.3-6.7-6.6-10-10c-2.3-2.4-3.4-5.3-3.4-8.7c0-0.8,0-1.6,0.1-2.8
					c-2.6,3.6-5,6.7-7.3,9.9v0.1c0.8-1.6,1.5-3.4,2.6-4.9c4.7-6.4,9.3-12.9,15.2-18.3c4.8-4.4,9.1-9.4,13.9-13.8
					c2.4-2.2,5.2-3.9,8.4-6.2c-0.3,0.9-0.4,1.3-0.6,1.9c5.3-0.6,9.4,1.7,12.9,5.5c2.8,3,5.8,5.8,8.7,8.6c3.2,3.1,8.4,3.8,12.3,1.5
					c9.5-5.5,19.5-9.9,30-13.3c2.7-0.8,5.5-1.5,7.9-2.9c3.2-1.8,5-4.8,5.1-8.6c0.1-4.3,0.3-8.6,0-12.8c-0.6-7.6,4.1-15.4,15-15.1
					c9,0.2,18,0,27,0c7.4-0.1,13,4.2,13.9,11.1c0.4,3.5,0.2,7.1,0.2,10.6c0,2.1-0.1,4.3,0.1,6.4c0.4,4.8,3.7,8.4,8.7,9.8
					c2.7,0.7,5.3,1.5,7.9,2.3C345.4,94.2,345.9,94.6,346.4,94.9z"/>
			</g>
			<g>
				<path class="st2" d="M179.6,180.3l-1.1-1.1l-4.8-1.5l-2.8-6.2l0.2-0.4c0.6-1.3,1.2-2.6,1.9-4c1.4-3,2.8-6,4.4-8.9
					c2.8-5.2,2.3-9.6-1.7-13.6c-3.2-3.1-6.6-6.5-10-10c-2.3-2.4-3.6-5.4-3.7-9l-5.1,6.9c-0.1,0.1-0.1,0.2-0.2,0.3l-1,1.9l-1.1-2.5
					l0.5-0.8c0.2-0.4,0.3-0.7,0.5-1.1c0.5-1.2,1.1-2.4,1.9-3.5c0.6-0.8,1.2-1.6,1.7-2.4c4.1-5.5,8.3-11.3,13.5-16.1
					c2.5-2.3,4.9-4.7,7.2-7.1c2.2-2.2,4.4-4.5,6.7-6.7c1.7-1.6,3.6-2.9,5.5-4.3c0.9-0.6,1.9-1.3,2.9-2.1l2.6-1.9l-1.2,3.5
					c4.5,0,8.5,1.9,12.2,5.9c2.6,2.8,5.4,5.5,8.1,8.1l0.6,0.5c3,2.8,7.6,3.4,11.1,1.4c9.8-5.6,20-10.1,30.2-13.3
					c0.5-0.2,1.1-0.3,1.7-0.5c2.1-0.6,4.2-1.3,6-2.3c2.9-1.6,4.5-4.3,4.6-7.7c0-0.9,0-1.7,0.1-2.6c0.1-3.4,0.2-6.8-0.1-10.2
					c-0.3-4.5,1.1-8.8,3.9-11.8c2.9-3,7.1-4.6,12.1-4.4c7,0.2,14.2,0.1,21.1,0c1.9,0,3.9,0,5.8-0.1c0.1,0,0.1,0,0.2,0
					c8.1,0,13.9,4.7,14.8,12c0.3,2.5,0.3,5.1,0.2,7.5c0,1.1,0,2.2,0,3.2c0,0.7,0,1.4,0,2.2c0,1.4,0,2.8,0.1,4.2
					c0.4,4.3,3.4,7.6,7.9,8.9c2.7,0.8,5.4,1.5,8,2.3c0.5,0.2,0.9,0.4,1.3,0.7c0.1,0.1,0.3,0.2,0.4,0.3l0.3,0.2l2.9,7h-1.5
					c-0.1,0-0.3,0-0.5,0c-0.4,0-1,0.1-1.5-0.1c-4.2-1.3-8.5-2.6-12.6-3.9c-7.1-2.3-12.3-9.4-12-16.6c0.2-4.6,0-9.3-0.1-13.8v-0.6
					c-0.1-3.3-2.5-5.9-5.9-6.2c-1.2-0.1-2.5-0.1-3.7-0.1h-0.7c-3,0-6,0-9,0c-5.7,0-11.5,0.1-17.2,0l0,0c-4.1,0-7.1,2.9-7.1,6.8
					c0,2.8,0,5.6,0,8.5c0,1.7,0,3.4,0,5.1c0,8.8-5,15.2-13.6,17.6c-10.7,2.9-21.1,7.3-30.8,12.9c-7.9,4.6-16.2,3.6-22.5-2.8
					c-2.8-2.8-5.6-5.6-8.4-8.4l-0.9-0.9c-1.4-1.4-3.1-2.1-5.2-2c-2.4,0.1-4,1.5-5.5,3.1c-2.9,3-5.8,5.9-8.7,8.8
					c-3.8,3.8-7.6,7.7-11.4,11.6c-2.9,3-2.8,6.7,0.2,9.7c3,3.1,5.9,5.9,8.7,8.6c6.9,6.5,8.2,14.3,3.6,22.7
					c-2.3,4.2-4.3,8.4-6.2,12.4l-0.1,0.2c-0.3,0.6-0.6,1.2-0.7,1.5c0.2,0.1,0.5,0.2,0.8,0.3c0.3,0.1,0.6,0.2,0.9,0.4
					c0.6,0.3,0.9,0.7,1.3,1.1c0.1,0.1,0.1,0.1,0.2,0.2l0.7,0.2L179.6,180.3z M173.1,171.5l1.5,3.3c0.2-0.4,0.4-1,0.7-1.7l0.1-0.2
					c1.9-4,4-8.3,6.3-12.5c4.1-7.6,3-14.3-3.2-20.2c-2.9-2.7-5.8-5.5-8.8-8.7c-3.8-3.9-3.8-8.8-0.2-12.6c3.8-3.9,7.7-7.8,11.4-11.6
					c2.9-2.9,5.8-5.9,8.7-8.8c1.8-1.8,3.8-3.6,6.9-3.8c2.7-0.1,4.9,0.8,6.8,2.6l0.9,0.9c2.8,2.8,5.6,5.6,8.4,8.4
					c5.7,5.7,12.8,6.6,20,2.4c9.9-5.7,20.4-10.1,31.3-13.1c7.7-2.1,12.1-7.8,12.1-15.6c0-1.7,0-3.4,0-5.1c0-2.8,0-5.6,0-8.5
					c0-5.1,4-8.9,9.1-8.9l0,0c5.7,0,11.6,0,17.2,0c3,0,6,0,9,0h0.7c1.3,0,2.6,0,4,0.1c4.3,0.4,7.6,3.9,7.7,8.2v0.6
					c0.1,4.6,0.3,9.3,0.1,13.9c-0.3,6.3,4.3,12.5,10.6,14.5c4.1,1.3,8.3,2.6,12.4,3.9l-1.5-3.5c-0.1,0-0.1-0.1-0.2-0.1
					c-0.3-0.2-0.6-0.4-0.8-0.4c-2.6-0.8-5.2-1.6-7.9-2.3c-5.4-1.5-9-5.5-9.4-10.7c-0.1-1.5-0.1-2.9-0.1-4.4c0-0.7,0-1.4,0-2.1
					c0-1.1,0-2.2,0-3.3c0-2.4,0.1-4.9-0.2-7.2c-0.8-6.3-5.9-10.3-12.9-10.2c-1.9,0-3.9,0-5.8,0.1c-6.9,0.1-14.1,0.2-21.2,0
					c-4.4-0.1-8.1,1.2-10.6,3.8c-2.4,2.5-3.6,6.3-3.3,10.2c0.3,3.5,0.2,7,0.1,10.4c0,0.8,0,1.7-0.1,2.5c-0.1,4.1-2.1,7.5-5.6,9.5
					c-2,1.1-4.3,1.8-6.4,2.5c-0.5,0.2-1.1,0.3-1.6,0.5c-10.1,3.2-20.1,7.6-29.8,13.2c-4.2,2.4-9.9,1.7-13.5-1.7l-0.6-0.5
					c-2.8-2.6-5.6-5.3-8.2-8.2c-3.7-4-7.5-5.7-12.1-5.2l-1.6,0.2l0.1-0.4c-0.1,0.1-0.2,0.2-0.4,0.3c-1.9,1.3-3.8,2.6-5.3,4.1
					c-2.3,2.1-4.5,4.4-6.7,6.6c-2.3,2.4-4.7,4.9-7.2,7.2c-3.8,3.5-7,7.5-10.1,11.6l-0.1,2.2c0,0.6,0,1.1,0,1.6c0,3.2,1,5.8,3.1,7.9
					c3.4,3.5,6.8,6.8,9.9,10c4.7,4.6,5.4,10,2.1,16c-1.6,2.9-3,5.9-4.3,8.8C174.2,169.1,173.7,170.3,173.1,171.5z"/>
			</g>
		</g>
		<g>
			<g>
				<path class="st2" d="M245.5,356.7c1.3-0.6,2.7-1.2,4-1.7c0.4-0.2,0.9-0.3,1.3-0.5c0.9,0.1,1.8,0.2,2.7,0.4
					c4.3,1.3,8.6,2.8,13,4.1c6.9,2,11.7,8.1,11.9,15.3c0.1,5,0.1,10,0.1,15c0,2.4,1.2,4.2,3,5.6c2,1.7,4.4,1.6,6.8,1.6
					c9.2,0,18.4-0.2,27.5-0.1c4.9,0,8.3-3,8.4-7.9c0.1-4.5,0-9.1,0-13.6c-0.1-7.5,4.3-13.8,11.2-16c2.4-0.8,4.9-1.4,7.4-2.2
					c9.3-3,18.1-7.1,26.6-12c6-3.5,13.7-2.6,18.8,2.1c1.9,1.7,3.7,3.6,5.5,5.4c1.8,1.8,3.5,3.6,5.4,5.3c3.1,2.9,7.7,2.9,10.7,0
					c7.2-7.1,14.3-14.3,21.3-21.6c3.5-3.6,3.3-7.8-0.1-11.4c-2.8-2.8-5.6-5.7-8.5-8.4c-6.3-5.9-7.8-13.4-4.1-20.6
					c2.1-4,4.1-8.1,6.2-12.1c0.2-0.4,0.7-0.7,1.1-1c0.7,1.8,1.5,3.5,2.2,5.3c-0.8,1.8-1.6,3.7-2.5,5.5c-1,2-2.1,3.9-3,5.9
					c-1.9,4.3-0.7,9.1,2.7,12.4c3.6,3.4,7.1,6.9,10.5,10.5c4.6,4.9,4,12.8-1.1,17.9c-6.7,6.7-13.4,13.5-20.1,20.2
					c-6.3,6.3-14,6.2-20.2-0.2c-2.9-3-5.9-6-9-8.9c-3.7-3.6-8.8-4.3-13.3-1.7c-8.5,4.9-17.4,8.9-26.7,12.1c-2.6,0.9-5.3,1.5-7.9,2.4
					c-4.7,1.5-7.7,5.5-7.8,10.4c-0.1,4-0.1,8.1,0,12.1c0.3,9.9-5,15.4-14.9,15.3c-9-0.1-18.1,0-27.1,0.1c-8.1,0.1-13.8-5.2-14-13.3
					c-0.1-4.6-0.1-9.3,0-13.9c0-5-3.6-9.2-9.1-10.9c-5.8-1.8-11.5-3.8-17.2-5.8C246.5,357.6,246,357.1,245.5,356.7z"/>
			</g>
			<g>
				<path class="st2" d="M287.1,402.7c-8.7,0-14.6-5.7-14.7-14.3c-0.1-4.1-0.1-8.4,0-14c0-4.4-3.2-8.3-8.3-9.9
					c-4.6-1.4-9.2-3-13.7-4.6c-1.2-0.4-2.4-0.8-3.6-1.2c-0.6-0.2-1-0.6-1.4-0.9c-0.1-0.1-0.3-0.2-0.4-0.3l-1.4-1.1l5.6-2.4l1.6-0.6
					h0.3c0.3,0,0.5,0.1,0.8,0.1c0.7,0.1,1.3,0.2,2,0.4c1.8,0.5,3.5,1.1,5.3,1.7c2.5,0.8,5.1,1.7,7.7,2.4c7.4,2.2,12.5,8.7,12.6,16.2
					c0.1,2.9,0.1,5.9,0.1,8.8c0,2.1,0,4.2,0,6.3c0,1.9,0.9,3.4,2.6,4.9c1.7,1.4,3.8,1.4,6,1.4h0.1c3.1,0,6.3,0,9.4-0.1
					c6,0,12.1-0.1,18.2-0.1l0,0c4.5,0,7.3-2.7,7.3-6.9c0.1-4.6,0-9.4,0-13.6c-0.1-8,4.6-14.6,11.9-17c1.2-0.4,2.4-0.7,3.6-1.1
					c1.2-0.4,2.5-0.7,3.8-1.1c8.9-2.9,17.8-6.9,26.4-11.9c6.3-3.7,14.5-2.7,20,2.2c1.3,1.2,2.6,2.5,3.8,3.7c0.6,0.6,1.2,1.2,1.7,1.7
					s1.1,1.1,1.6,1.6c1.2,1.2,2.5,2.5,3.7,3.6c2.7,2.5,6.7,2.5,9.2,0c8.4-8.4,15.2-15.2,21.3-21.5c3.1-3.2,3-6.7-0.1-10
					c-3.1-3.2-5.8-5.9-8.5-8.3c-6.7-6.2-8.2-14.2-4.3-21.8l1.9-3.7c1.4-2.8,2.8-5.6,4.3-8.4c0.2-0.5,0.6-0.8,1-1
					c0.1-0.1,0.2-0.2,0.3-0.3l1.1-1l3,7.1l-0.2,0.4c-0.2,0.6-0.5,1.1-0.7,1.7c-0.5,1.3-1.1,2.6-1.7,3.8c-0.4,0.8-0.9,1.7-1.3,2.5
					c-0.6,1.1-1.2,2.2-1.7,3.3c-1.7,3.9-0.7,8.2,2.5,11.3c3.2,3.1,6.9,6.7,10.6,10.6c4.9,5.3,4.4,13.8-1.1,19.4l-4.1,4.1
					c-5.3,5.4-10.7,10.7-16,16.1c-3.3,3.2-7,5-10.7,5h-0.1c-3.8,0-7.6-1.8-10.8-5.2c-3.1-3.2-6.3-6.3-9-8.9c-3.5-3.3-8-3.9-12.1-1.5
					c-8.6,5-17.7,9.1-26.9,12.1c-1.4,0.5-2.8,0.9-4.2,1.3c-1.2,0.4-2.5,0.7-3.7,1.1c-4.4,1.4-7,5-7.1,9.5v0.2
					c-0.1,3.9-0.1,7.9,0,11.9c0.2,5.2-1.2,9.3-3.9,12.2c-2.8,2.8-6.8,4.2-12,4.2c-8.7-0.1-17.5,0-27.1,0.1
					C287.2,402.7,287.1,402.7,287.1,402.7z M247.6,356.9c1.1,0.4,2.2,0.8,3.4,1.2c4.4,1.5,9,3.1,13.6,4.5c6,1.8,9.8,6.5,9.8,11.9
					c0,5.6,0,9.9,0,13.9c0.1,7.5,5.3,12.4,12.9,12.3c9.6-0.1,18.5-0.2,27.2-0.1c0.1,0,0.1,0,0.2,0c4.5,0,8-1.2,10.3-3.6
					c2.4-2.4,3.5-6,3.4-10.7c-0.1-4-0.1-8.1,0-12v-0.2c0.1-5.4,3.3-9.7,8.5-11.4c1.2-0.4,2.5-0.8,3.8-1.1c1.4-0.4,2.8-0.8,4.1-1.3
					c9.1-3,18-7.1,26.6-12c4.9-2.8,10.5-2.1,14.6,1.8c2.7,2.6,5.9,5.7,9,8.9c2.9,3,6.1,4.5,9.3,4.6c3.3,0,6.5-1.5,9.4-4.4
					c5.4-5.3,10.7-10.7,16-16.1l4.1-4.1c4.8-4.8,5.3-12.1,1.1-16.5c-3.6-3.8-7.3-7.4-10.5-10.5c-3.8-3.6-5-9-2.9-13.6
					c0.5-1.2,1.2-2.4,1.8-3.5c0.4-0.8,0.9-1.6,1.3-2.4c0.6-1.2,1.2-2.5,1.7-3.7c0.2-0.4,0.4-0.9,0.6-1.3l-1.4-3.4
					c-1.4,2.7-2.7,5.3-4.1,8l-1.9,3.7c-3.5,6.9-2.1,13.8,3.9,19.4c2.6,2.5,5.4,5.2,8.5,8.4c3.9,4,4,8.8,0.1,12.8
					c-6.1,6.3-12.9,13.2-21.3,21.6c-3.3,3.3-8.5,3.3-12.1,0c-1.3-1.2-2.6-2.5-3.8-3.7c-0.5-0.5-1.1-1.1-1.6-1.6
					c-0.6-0.6-1.2-1.2-1.8-1.8c-1.2-1.2-2.4-2.5-3.7-3.6c-4.8-4.4-12-5.2-17.6-2c-8.7,5-17.7,9.1-26.8,12.1
					c-1.3,0.4-2.6,0.8-3.9,1.2c-1.2,0.3-2.4,0.7-3.5,1c-6.4,2.1-10.5,8-10.5,15c0,4.2,0.1,9,0,13.6c-0.1,5.4-3.9,8.9-9.4,8.9
					c-0.7,0-1.4,0-2.1,0c-5.4,0-10.8,0-16.1,0.1c-3.1,0-6.3,0-9.4,0.1h-0.1c-2.4,0-5.1,0-7.3-1.8c-2.2-1.8-3.3-3.9-3.4-6.4
					c0-2.1,0-4.2,0-6.3c0-2.9,0-5.8-0.1-8.7c-0.1-6.7-4.6-12.4-11.2-14.3c-2.6-0.8-5.2-1.6-7.7-2.4c-1.7-0.6-3.5-1.1-5.2-1.7
					c-0.5-0.2-1-0.2-1.6-0.3c-0.2,0-0.4,0-0.6-0.1l-1.1,0.4L247.6,356.9z"/>
			</g>
		</g>
		<g>
			<g>
				<path class="st2" d="M172,171.4c0.8,1.8,1.6,3.6,2.5,5.4c-0.6,1.4-1.1,2.7-1.7,4.1c-1.7,0.7-3.5,1.5-5.2,2.2
					c0.6-1.9,1-3.8,1.7-5.6C170,175.4,171.1,173.5,172,171.4z"/>
			</g>
			<g>
				<path class="st2" d="M165.9,184.9l0.6-2.1c0.2-0.6,0.3-1.1,0.5-1.7c0.4-1.3,0.7-2.7,1.2-4c0.6-1.5,1.3-2.9,1.9-4.3
					c0.3-0.6,0.6-1.2,0.9-1.8l0.9-2l3.6,7.8l-2,4.9L165.9,184.9z M172,173.9c-0.6,1.3-1.3,2.7-1.8,4c-0.4,1.1-0.8,2.3-1.1,3.5
					l2.9-1.2l1.4-3.3L172,173.9z"/>
			</g>
		</g>
		<g>
			<g>
				<path class="st2" d="M388.6,77.6c-2-1-3.9-2.1-5.9-3.1c-4.7-2.3-9.5-4.5-14.2-6.8c-1.1-0.6-1.7-0.3-2.2,0.9
					c-2.6,6.4-5.2,12.8-7.9,19.2c-0.2,0.6-0.5,1.2-0.7,1.8c-0.2-0.1-0.3-0.1-0.5-0.2c0.2-0.5,0.3-1.1,0.5-1.6
					c2.5-6.2,5-12.4,7.6-18.6c0.7-1.6,1.1-2.9-1.1-3.4c-0.1,0-0.2-0.2-0.5-0.7c1.1,0.3,1.9,0.6,2.8,0.8c0.4-0.7,0.8-1.3,1.2-2
					c0.1,0,0.2,0.1,0.3,0.1c-0.2,0.7-0.4,1.4-0.5,2.1c7.2,3.5,14.4,7,21.6,10.5C388.8,77.1,388.7,77.4,388.6,77.6z"/>
			</g>
			<g>
				<path class="st2" d="M358.2,90.9l-2.4-0.8l0.5-1.5c0.1-0.4,0.2-0.8,0.4-1.1l1.7-4.2c1.9-4.7,3.9-9.6,5.9-14.4
					c0.2-0.4,0.6-1.4,0.4-1.6c0,0-0.1-0.2-0.9-0.4c-0.5-0.1-0.7-0.5-0.8-0.7c-0.1-0.1-0.1-0.2-0.2-0.4l-1.8-2.5l5,1.4l1.2-2l2,0.6
					l-0.6,2.3l21.8,10.6L389,79l-1-0.5c-0.6-0.3-1.2-0.6-1.8-1c-1.3-0.7-2.7-1.4-4-2.1c-2.5-1.2-5-2.4-7.5-3.6
					c-2.3-1.1-4.5-2.2-6.8-3.2c-0.3-0.2-0.5-0.2-0.5-0.2l0,0c0,0-0.1,0.1-0.3,0.6c-1.9,4.8-3.9,9.6-5.8,14.3L358.2,90.9z"/>
			</g>
		</g>
		<g>
			<g>
				<path class="st2" d="M462.2,160.9c-2.4,0.9-4.7,1.9-7.1,2.8c-0.1-0.1-0.1-0.3-0.2-0.4c2.2-1,4.3-1.9,6.6-2.9
					c-3.9-9.3-7.7-18.4-11.5-27.5c0.2-0.1,0.5-0.2,0.7-0.3c3.9,9.1,7.8,18.2,11.9,27.8c2.2-1.2,4.1-2.3,6-3.3
					c0.1,0.3,0.2,0.6,0.4,0.9c-2.2,1-4.3,2-6.5,2.9C462.4,160.8,462.3,160.9,462.2,160.9z"/>
			</g>
			<g>
				<path class="st2" d="M454.6,165l-1-2.2l6.6-2.9l-11.5-27.5l2.6-1.1l11.8,27.7l6-3.3l1.2,2.8l-7.5,3.4h-0.1h-0.1L454.6,165z"/>
			</g>
		</g>
		<g>
			<g>
				<path class="st2" d="M133.4,178.1c1.9-5.3,3.7-10.6,5.7-16c-0.7-0.4-1.3-0.7-2-1.1c0-0.1,0-0.2,0.1-0.3c0.7,0.2,1.4,0.4,2.3,0.6
					c1.4-2.8,2.7-5.7,4.1-8.6c0.1,0,0.3,0.1,0.4,0.1c-0.3,0.8-0.5,1.6-0.9,2.4c-0.7,1.6-1.5,3.2-2.3,4.8c-0.7,1.3-0.3,1.9,1,2.5
					c6.4,2.5,12.7,5.2,19.1,7.8c0.6,0.2,1.2,0.5,1.8,0.7c-0.1,0.2-0.1,0.3-0.2,0.5c-0.6-0.2-1.2-0.3-1.7-0.6
					c-6.1-2.5-12.3-5-18.4-7.5c-2.6-1.1-2.7-1.1-3.7,1.7c-1.3,3.6-2.5,7.2-3.8,10.8c-0.3,0.9-0.7,1.7-1.1,2.6
					C133.7,178.2,133.6,178.1,133.4,178.1z"/>
			</g>
			<g>
				<path class="st2" d="M134.5,179.6l-2.4-0.9l5.7-16.2l-1.9-1.1l0.4-2.1l2.5,0.6l4.1-8.7l2.2,0.8l-0.3,1c-0.1,0.2-0.2,0.5-0.2,0.7
					c-0.2,0.6-0.4,1.2-0.6,1.7c-0.6,1.4-1.4,3.2-2.3,4.9c-0.2,0.5-0.2,0.6-0.2,0.6l0,0c0,0,0.1,0.2,0.7,0.4
					c4.7,1.9,9.5,3.9,14.1,5.7l7.6,3.1l-0.8,2.4l-1.5-0.5c-0.4-0.1-0.8-0.3-1.2-0.4c-3.9-1.6-7.9-3.2-11.8-4.8l-6.6-2.7
					c-0.7-0.3-1.3-0.6-1.6-0.6c-0.2,0.3-0.5,1.1-0.7,1.7c-0.8,2.2-1.5,4.3-2.3,6.5c-0.5,1.4-1,2.8-1.5,4.3c-0.2,0.6-0.5,1.2-0.7,1.9
					c-0.1,0.3-0.2,0.5-0.3,0.8L134.5,179.6z"/>
			</g>
		</g>
		<g>
			<g>
				<path class="st2" d="M160.8,334.4c-1.3-1.8-2.8-3.6-4-5.5c-2.7-4.2-4.9-8.9-8.1-12.7c-2.7-3.2-3.4-7.1-5.3-10.5
					c-0.2-0.4-0.3-0.8-0.5-1.2c0-0.1,0.1-0.2,0.3-0.6c5.2,10.7,11.3,20.6,18.2,30.1C161.2,334.1,161,334.2,160.8,334.4z"/>
			</g>
			<g>
				<path class="st2" d="M160.6,335.8L160,335c-0.4-0.6-0.8-1.1-1.3-1.7c-0.9-1.2-1.9-2.5-2.8-3.9c-0.9-1.5-1.8-3-2.7-4.4
					c-1.6-2.8-3.3-5.7-5.3-8.1c-1.8-2.1-2.7-4.4-3.6-6.7c-0.6-1.4-1.1-2.7-1.8-3.9c-0.2-0.4-0.4-0.9-0.5-1.2V305
					c-0.1-0.4,0-0.8,0.1-1c0-0.1,0.1-0.2,0.1-0.3l0.9-2.1l1,2.1c5.1,10.4,11,20.2,18.1,29.9l0.6,0.9L160.6,335.8z"/>
			</g>
		</g>
		<g>
			<g>
				<path class="st2" d="M427.7,287.7c-0.7-1.8-1.5-3.5-2.2-5.3c0.3-0.7,0.6-1.3,0.9-2c1.7-0.7,3.5-1.5,5.2-2.2
					c0.1,0.1,0.2,0.2,0.2,0.3C430.5,281.6,429.1,284.6,427.7,287.7z"/>
			</g>
			<g>
				<path class="st2" d="M427.7,290.3l-3.3-7.9l1.2-2.8l6.3-2.7l0.5,0.6c0.4,0.4,0.5,0.9,0.3,1.3c-1.2,2.7-2.4,5.4-3.6,8.2
					L427.7,290.3z M426.6,282.4l1.1,2.7c0.8-1.7,1.5-3.4,2.3-5.2l-2.9,1.2L426.6,282.4z M430.9,278.1L430.9,278.1L430.9,278.1z"/>
			</g>
		</g>
		<g>
			<g>
				<path class="st2" d="M139.1,296.4c-1.7-4.4-3.2-9-5.2-13.3c-1.7-3.4-1.7-7.1-2.1-10.8c0.2,0.5,0.5,0.9,0.7,1.4
					c1.8,5.5,3.4,11.1,5.3,16.6c0.7,1.9,1.8,3.7,2.7,5.6C140,296.1,139.5,296.2,139.1,296.4z"/>
			</g>
			<g>
				<path class="st2" d="M138.5,297.8l-0.4-1c-0.5-1.3-1-2.7-1.5-4.1c-1.1-3.1-2.3-6.2-3.7-9.1c-1.4-2.9-1.7-5.9-2-8.8
					c-0.1-0.8-0.1-1.5-0.2-2.3l-0.7-6.2l2.7,5.6c0.1,0.1,0.1,0.3,0.2,0.4c0.2,0.3,0.4,0.7,0.5,1.1c0.6,1.8,1.1,3.6,1.7,5.4
					c1.1,3.7,2.3,7.4,3.6,11.1c0.4,1.2,1.1,2.4,1.7,3.7c0.3,0.6,0.6,1.2,0.9,1.8l0.5,1L138.5,297.8z"/>
			</g>
		</g>
		<g>
			<g>
				<path class="st2" d="M494.4,238.7c-2.8,1.1-5.3,2-7.9,3c-0.1-0.2-0.2-0.4-0.2-0.5c4.2-1.8,8.3-3.6,12.5-5.3
					c0.1,0.2,0.2,0.3,0.2,0.5c-1.2,0.7-2.5,1.3-3.9,2.1c1.8,4.4,3.6,8.8,5.4,13.1c-0.2,0.1-0.4,0.2-0.7,0.3
					C498.1,247.4,496.3,243.1,494.4,238.7z"/>
			</g>
			<g>
				<polygon class="st2" points="499.4,253.1 493.8,240 486,243 485,240.6 499.3,234.5 500.5,236.7 496.5,238.8 501.9,252 				"/>
			</g>
		</g>
		<g>
			<g>
				<path class="st2" d="M471,183.6c0.9,4,1.8,8,2.5,12c0.8,4.6,1.4,9.2,2.1,13.7c0,0.2-0.1,0.4-0.1,0.6c-0.3,0.1-0.6,0.2-0.9,0.3
					c0.1-0.3,0.2-0.7,0.2-1c-1.6-8.3-3.2-16.7-4.8-25c-0.1-0.5,0.1-1.1,0.1-1.6c0.2,0.2,0.4,0.3,0.6,0.5
					C471,183.3,471,183.4,471,183.6z"/>
			</g>
			<g>
				<path class="st2" d="M473.4,211.8l0.3-1.7c0-0.1,0.1-0.3,0.1-0.4s0.1-0.2,0.1-0.3c-0.7-3.8-1.4-7.6-2.2-11.4
					c-0.9-4.5-1.7-9-2.6-13.5c-0.1-0.5,0-1,0-1.5c0-0.2,0-0.3,0.1-0.5l0.2-1.8l2.4,1.8l0.2,0.9c0.3,1.2,0.5,2.4,0.8,3.6
					c0.6,2.7,1.2,5.6,1.7,8.4c0.6,3.3,1.1,6.7,1.6,10c0.2,1.3,0.4,2.5,0.6,3.8c0.1,0.3,0,0.6-0.1,0.8l-0.1,0.7L473.4,211.8z"/>
			</g>
		</g>
		<g>
			<g>
				<path class="st2" d="M425.4,352.9c6.1-7.2,12.1-14.3,18-21.3C443.3,333.6,428.8,350.9,425.4,352.9z"/>
			</g>
			<g>
				<path class="st2" d="M420.7,356.9l23.8-28.1l-0.1,3c-0.1,2.7-15.3,20.2-18.5,22.1L420.7,356.9z"/>
			</g>
		</g>
		<g>
			<g>
				<path class="st2" d="M270,56.9c-9,2.4-17.9,4.8-26.9,7.2C251.8,60.5,260.8,58.3,270,56.9z"/>
			</g>
			<g>
				<path class="st2" d="M243.4,65l-0.7-1.9c7.9-3.3,16.8-5.6,27.1-7.2l0.4,2L243.4,65z"/>
			</g>
		</g>
		<g>
			<g>
				<path class="st2" d="M303,404.4c-9.3,0.4-18.6-0.1-27.8-2C284.4,403,293.7,403.7,303,404.4z"/>
			</g>
			<g>
				<path class="st2" d="M297,405.5c-7.7,0-15-0.7-22.1-2.1l0.3-2l27.8,2v2C301,405.5,299,405.5,297,405.5z"/>
			</g>
		</g>
		<g>
			<g>
				<path class="st2" d="M316,403.7c9.2-1.5,18.3-3,27.5-4.5C334.6,401.8,325.4,403.4,316,403.7z"/>
			</g>
			<g>
				<path class="st2" d="M316.1,404.7l-0.2-2l27.5-4.5l0.5,2C334.3,402.9,325.2,404.4,316.1,404.7z"/>
			</g>
		</g>
		<g>
			<g>
				<path class="st2" d="M206.4,82.1c7.6-5.4,15.7-9.8,24.4-13.2C222.7,73.3,214.5,77.7,206.4,82.1z"/>
			</g>
			<g>
				<path class="st2" d="M206.8,83l-1.1-1.7c7.4-5.3,15.7-9.8,24.7-13.3l0.9,1.9L206.8,83z"/>
			</g>
		</g>
		<g>
			<g>
				<path class="st2" d="M393.3,378.3c7.5-5.5,15-11,22.5-16.5C409,368.2,401.4,373.6,393.3,378.3z"/>
			</g>
			<g>
				<path class="st2" d="M393.8,379.2l-1.1-1.7l22.5-16.5l1.3,1.6C409.9,368.8,402.5,374.2,393.8,379.2z"/>
			</g>
		</g>
		<g>
			<g>
				<path class="st2" d="M463.3,295.8c-3.3,8.6-7.3,16.9-12.5,24.6C455,312.2,459.2,304,463.3,295.8z"/>
			</g>
			<g>
				<path class="st2" d="M451.7,321l-1.8-1l12.5-24.6l1.9,0.8C460.7,305.6,456.6,313.7,451.7,321z"/>
			</g>
		</g>
		<g>
			<g>
				<path class="st2" d="M473,263.9c-1.4,9.2-4.1,18.1-7.7,26.7C467.9,281.7,470.5,272.8,473,263.9z"/>
			</g>
			<g>
				<path class="st2" d="M466.3,291l-1.9-0.7l7.7-26.7l2,0.4C472.7,272.7,470.2,281.5,466.3,291z"/>
			</g>
		</g>
		<g>
			<g>
				<path class="st2" d="M235.9,391.7c8.8,2.8,17.6,5.5,26.4,8.3C253.1,398.3,244.4,395.3,235.9,391.7z"/>
			</g>
			<g>
				<path class="st2" d="M262.1,400.9c-8-1.4-16.5-4-26.6-8.3l0.7-1.9l26.4,8.3L262.1,400.9z"/>
			</g>
		</g>
		<g>
			<g>
				<path class="st2" d="M439.7,284.5c8.4,3.4,16.8,6.9,25.2,10.3c0,0.1-0.1,0.2-0.1,0.3c-8.4-3.4-16.8-6.9-25.2-10.3
					C439.7,284.7,439.7,284.6,439.7,284.5z"/>
			</g>
			<g>
				<polygon class="st2" points="465.4,296.4 438.3,285.3 439.2,283.1 466.3,294.2 				"/>
			</g>
		</g>
		<g>
			<g>
				<path class="st2" d="M244,366.8c-3.4,8.4-6.9,16.8-10.3,25.2c-0.1,0-0.2-0.1-0.3-0.1c3.4-8.4,6.9-16.8,10.3-25.2
					C243.8,366.7,243.9,366.7,244,366.8z"/>
			</g>
			<g>
				<polygon class="st2" points="234.3,393.3 232.1,392.4 243.1,365.3 245.3,366.2 				"/>
			</g>
		</g>
		<g>
			<g>
				<path class="st2" d="M203.4,374.3c2,1.2,4,2.3,6,3.5c4.4,2.5,8.9,5,13.3,7.4c0.4,0.2,0.8,0.5,1.3,0.9c-0.4,0.1-0.6,0.3-0.7,0.2
					c-6.4-3.6-12.7-7.3-19.1-10.9C203.9,375.2,203.7,374.7,203.4,374.3L203.4,374.3z"/>
			</g>
			<g>
				<path class="st2" d="M223.3,387.4c-0.2,0-0.4,0-0.5-0.1c-7.1-4-13.1-7.4-19.1-10.9c-0.5-0.3-0.7-0.8-0.9-1.2l0,0l-1.4-0.8
					l2.5-1.3l0.4,0.7l1.5,0.9c1.4,0.8,2.7,1.6,4.1,2.4c2.6,1.5,5.2,2.9,7.8,4.4c1.8,1,3.7,2,5.5,3.1c0.3,0.2,0.6,0.4,0.9,0.6
					c0.1,0.1,0.3,0.2,0.5,0.3l1.7,1.2l-2,0.7c-0.1,0-0.2,0.1-0.3,0.1C223.9,387.3,223.6,387.4,223.3,387.4z"/>
			</g>
		</g>
		<g>
			<g>
				<path class="st2" d="M330.4,56.8c0.3-0.2,0.6-0.5,0.8-0.5c6.7,1.5,13.3,3.1,19.9,4.6c0.1,0,0.1,0.2,0.4,0.5
					C344.3,59.8,337.3,58.3,330.4,56.8C330.4,56.7,330.4,56.8,330.4,56.8z"/>
			</g>
			<g>
				<path class="st2" d="M353.8,63l-23.2-5.2l-0.8,0.5l-0.9-3l1.3,0.3c0.3-0.2,0.7-0.4,1.2-0.3c6.7,1.5,13.3,3.1,19.9,4.6
					c0.5,0.1,0.7,0.5,0.8,0.7c0,0.1,0.1,0.2,0.2,0.3L353.8,63z M350.9,61.9L350.9,61.9L350.9,61.9z"/>
			</g>
		</g>
		<g>
			<g>
				<path class="st2" d="M471,183.6c0-0.2-0.1-0.4-0.1-0.6c-1-2.1-2-4.3-2.9-6.4c-0.2-0.6-0.2-1.3-0.3-2.2c2.1,4.9,4.2,9.6,6.2,14.2
					c-0.1,0-0.1,0.1-0.2,0.1C472.9,187.1,472,185.4,471,183.6z"/>
			</g>
			<g>
				<path class="st2" d="M473.4,190.2l-3.3-6.4l-0.1-0.4l-0.7-1.6c-0.7-1.5-1.4-3.1-2.1-4.7c-0.2-0.6-0.3-1.1-0.3-1.7
					c0-0.2,0-0.5-0.1-0.8l-0.8-6.9l9.4,21.5L473.4,190.2z"/>
			</g>
		</g>
		<g>
			<g>
				<path class="st2" d="M429.7,84.1c-2-4.7-3.9-9.4-5.9-14.2c0.2-0.1,0.3-0.1,0.5-0.2c2,4.7,3.9,9.4,5.9,14.2
					C430,84,429.8,84,429.7,84.1z"/>
			</g>
			<g>
				<polygon class="st2" points="429.1,85.4 422.4,69.4 424.8,68.4 431.5,84.5 				"/>
			</g>
		</g>
		<g>
			<g>
				<path class="st2" d="M482.3,209.8c-2-4.7-3.9-9.4-5.9-14c0.1,0,0.2-0.1,0.3-0.1c1.9,4.7,3.9,9.4,5.8,14.1
					C482.5,209.7,482.4,209.8,482.3,209.8z"/>
			</g>
			<g>
				<polygon class="st2" points="482,211 481.4,210.2 475.1,195.2 477.3,194.3 483.9,210.3 				"/>
			</g>
		</g>
		<g>
			<g>
				<path class="st2" d="M438.7,104.9c-1.9-4.7-3.8-9.4-5.7-14.1c-0.1,0-0.2,0.1-0.3,0.1C434.7,95.6,436.6,100.3,438.7,104.9
					C438.6,104.9,438.7,104.9,438.7,104.9z"/>
			</g>
			<g>
				<polygon class="st2" points="438,106.2 431.4,90.3 433.6,89.4 440.1,105.5 				"/>
			</g>
		</g>
		<g>
			<g>
				<path class="st2" d="M441.5,111.8c2,4.7,4,9.4,6.1,14.1l0,0c-1.9-4.7-3.9-9.5-5.8-14.2C441.7,111.7,441.6,111.7,441.5,111.8z"/>
			</g>
			<g>
				<polygon class="st2" points="447,127.2 446.6,126.3 440.2,111.3 441.1,110.9 441.5,111.8 441.5,111.8 441.1,110.8 442.3,110.3 
					448.9,126.4 				"/>
			</g>
		</g>
		<g>
			<g>
				<path class="st2" d="M485.6,216.7c1.9,4.7,3.8,9.4,5.8,14c-0.1,0-0.1,0.1-0.2,0.1c-2-4.7-3.9-9.3-5.9-14
					C485.4,216.7,485.5,216.7,485.6,216.7z"/>
			</g>
			<g>
				<polygon class="st2" points="490.7,232.1 490.2,231.2 484,216.3 486.2,215.3 492.7,231.2 				"/>
			</g>
		</g>
		<g>
			<g>
				<path class="st2" d="M369.1,390.7c-2.1,1-4.2,2-6.4,2.9c-1.7,0.7-3.5,1.3-5.3,2c-0.4,0.1-0.9,0.1-1.4-0.3
					c3.2-1.2,6.3-2.4,9.5-3.5C366.7,391.3,367.9,391.1,369.1,390.7L369.1,390.7z"/>
			</g>
			<g>
				<path class="st2" d="M356.9,396.6c-0.4,0-1-0.1-1.6-0.5l-1.5-1.1l4.5-1.7c2.3-0.9,4.6-1.7,6.9-2.5c0.8-0.3,1.7-0.5,2.5-0.7
					c0.2-0.1,0.4-0.1,0.7-0.2c0.1,0,0.2-0.1,0.3-0.1l1-0.4l0.9,2.1l-1.1,0.3c-0.1,0-0.2,0.1-0.3,0.1c-0.5,0.2-1,0.5-1.5,0.7
					c-1.5,0.7-3,1.4-4.5,2c-1.6,0.7-3.3,1.3-4.9,1.8l-0.5,0.2C357.5,396.6,357.2,396.6,356.9,396.6z"/>
			</g>
		</g>
		<g>
			<g>
				<path class="st2" d="M424.7,80.9c-3.9,2.1-7.8,4.2-11.8,6.4c-0.1-0.1-0.2-0.3-0.2-0.4C416.3,84.1,420.3,82.2,424.7,80.9z"/>
			</g>
			<g>
				<path class="st2" d="M412.5,88.6l-1.2-2.1L412,86c3.5-2.6,7.5-4.6,12.3-6.1l0.8,1.9L412.5,88.6z"/>
			</g>
		</g>
		<g>
			<g>
				<path class="st2" d="M369.1,390.7L369.1,390.7c0.1-0.1,0.1-0.4,0.2-0.4c3.8-1.8,7.6-3.5,11.7-5.5c-0.2,0.6-0.3,0.9-0.4,1
					c-3.5,1.6-7.1,3.3-10.6,4.9C369.7,390.8,369.4,390.7,369.1,390.7z"/>
			</g>
			<g>
				<path class="st2" d="M369.2,393.6l-1.6-4h0.9c0.1-0.1,0.2-0.2,0.4-0.3c3.5-1.6,7-3.3,10.7-5l3.3-1.5l-1,2.4
					c-0.1,0.2-0.1,0.4-0.2,0.5c-0.1,0.4-0.3,0.8-0.8,1.1c-3.4,1.6-7,3.2-10.7,4.9c-0.2,0.1-0.3,0.1-0.5,0.1L369.2,393.6z"/>
			</g>
		</g>
		<g>
			<g>
				<path class="st2" d="M448,166.3c-4.7,1.9-9.3,3.9-14,5.8c0,0.1,0.1,0.2,0.1,0.3c4.7-1.9,9.3-3.8,14-5.7
					C448.1,166.6,448,166.4,448,166.3z"/>
			</g>
			<g>
				<polygon class="st2" points="433.6,173.7 432.6,171.5 448.5,165 449.5,167.2 				"/>
			</g>
		</g>
		<g>
			<g>
				<path class="st2" d="M372.7,51.6c1.7-4.2,3.5-8.5,5.2-12.7c0.1,0,0.2,0.1,0.3,0.1c-1.7,4.2-3.5,8.5-5.2,12.7
					C372.8,51.7,372.8,51.6,372.7,51.6z"/>
			</g>
			<g>
				<polygon class="st2" points="373.5,53.1 371.3,52.2 377.3,37.6 379.5,38.4 				"/>
			</g>
		</g>
		<g>
			<g>
				<path class="st2" d="M112.1,150.3c4.2,1.7,8.4,3.4,12.6,5.2c0,0.1-0.1,0.2-0.1,0.3c-4.2-1.7-8.4-3.4-12.6-5.2
					C112,150.5,112,150.4,112.1,150.3z"/>
			</g>
			<g>
				<polygon class="st2" points="125.2,157.1 110.7,151.1 111.5,148.9 126,154.9 				"/>
			</g>
		</g>
		<g>
			<g>
				<path class="st2" d="M462.2,160.9c0.1,0,0.2-0.1,0.3-0.1c0.4,0.6,0.9,1.2,1.2,1.9c1,2.4,1.9,4.8,2.8,7.1
					c-0.2,0.1-0.4,0.2-0.6,0.2c-0.6-1.2-1.3-2.4-1.8-3.6C463.5,164.7,462.9,162.8,462.2,160.9z"/>
			</g>
			<g>
				<path class="st2" d="M465.5,171.4l-0.4-0.9c-0.2-0.4-0.4-0.7-0.6-1.1c-0.4-0.8-0.9-1.7-1.2-2.6c-0.5-1.3-1-2.6-1.4-3.9
					c-0.2-0.6-0.4-1.1-0.6-1.7l-0.3-0.9l0.9-0.4c0.1-0.1,0.3-0.1,0.4-0.2l0.7-0.2l0.4,0.6c0.1,0.2,0.3,0.4,0.4,0.5
					c0.3,0.5,0.7,0.9,0.9,1.5c0.7,1.7,1.4,3.5,2,5.2l1.1,2.9L465.5,171.4z"/>
			</g>
		</g>
		<g>
			<g>
				<path class="st2" d="M223.3,416.5c1.7-4.1,3.4-8.2,5-12.3c0.1,0,0.2,0.1,0.2,0.1c-1.7,4.1-3.4,8.2-5,12.3
					C223.4,416.5,223.3,416.5,223.3,416.5z"/>
			</g>
			<g>
				<polygon class="st2" points="224.1,417.9 221.9,417 227.7,402.8 229.9,403.8 				"/>
			</g>
		</g>
		<g>
			<g>
				<path class="st2" d="M477.3,299.9c4.1,1.7,8.2,3.4,12.3,5c0,0.1-0.1,0.2-0.1,0.3c-4.1-1.7-8.2-3.4-12.3-5
					C477.2,300.1,477.3,300,477.3,299.9z"/>
			</g>
			<g>
				<polygon class="st2" points="490.1,306.5 475.9,300.7 476.7,298.5 491,304.3 				"/>
			</g>
		</g>
		<g>
			<g>
				<path class="st2" d="M114.2,234.6c1.2,3.1,2.5,6.3,3.7,9.4h0.1c-1.2-3.1-2.5-6.3-3.7-9.4C114.3,234.6,114.2,234.6,114.2,234.6z"
					/>
			</g>
			<g>
				<polygon class="st2" points="117.4,245.3 116.9,244.4 112.9,234.2 114.8,233.1 119.3,244.6 				"/>
			</g>
		</g>
		<g>
			<g>
				<path class="st2" d="M124.1,258.2c-1.4-3.1-2.7-6.2-4.1-9.3l0,0C121.3,252,122.7,255.1,124.1,258.2L124.1,258.2z"/>
			</g>
			<g>
				<polygon class="st2" points="123.9,260.4 118.7,248.4 120.5,247.4 120.9,248.4 125.2,258.3 				"/>
			</g>
		</g>
		<g>
			<g>
				<path class="st2" d="M154.1,329.3c-1.4-3.1-2.8-6.3-3.8-8.5c1,2.3,2.3,5.5,3.6,8.6C153.9,329.3,154,329.3,154.1,329.3z"/>
			</g>
			<g>
				<polygon class="st2" points="153.4,330.7 152.9,329.7 149.3,321.1 151.2,320.3 155.4,329.8 				"/>
			</g>
		</g>
		<g>
			<g>
				<path class="st2" d="M129.8,272.4c-1.3-3.1-2.6-6.3-3.8-9.4c0.1,0,0.2-0.1,0.3-0.1c1.3,3.1,2.6,6.2,4,9.3
					C130.1,272.3,129.9,272.4,129.8,272.4z"/>
			</g>
			<g>
				<polygon class="st2" points="129.2,273.8 124.6,262.5 126.8,261.5 131.5,272.7 				"/>
			</g>
		</g>
		<g>
			<g>
				<path class="st2" d="M155.7,132.2c-1.8,2.9-3.6,5.9-5.3,8.8c-0.2-0.1-0.3-0.2-0.5-0.3c1.1-1.9,2.1-3.8,3.3-5.7
					c0.5-0.9,1.1-1.7,1.8-2.6C155.1,132.3,155.5,132.3,155.7,132.2C155.8,132.2,155.7,132.2,155.7,132.2z"/>
			</g>
			<g>
				<path class="st2" d="M150.8,142.4l-2.2-1.3l1.5-2.5c0.8-1.4,1.5-2.7,2.3-4c0.5-0.9,1.1-1.8,1.8-2.7c0.3-0.3,0.6-0.5,1-0.5
					l0.8-1.3l1.2,2.5l-0.6,0.5L150.8,142.4z"/>
			</g>
		</g>
		<g>
			<g>
				<path class="st2" d="M418.3,55.9c0.9,2.4,1.8,4.8,2.7,7.2h0.1c-0.9-2.4-1.8-4.8-2.6-7.3C418.4,55.8,418.3,55.8,418.3,55.9z"/>
			</g>
			<g>
				<polygon class="st2" points="420.5,64.4 420,63.5 417,55.3 419.1,54.5 422.4,63.7 				"/>
			</g>
		</g>
		<g>
			<g>
				<path class="st2" d="M505.9,265.3c-0.9-2.2-1.8-4.5-2.8-6.7c0.1-0.1,0.2-0.1,0.4-0.2c0.9,2.2,1.9,4.4,2.8,6.7
					C506.2,265.2,506,265.3,505.9,265.3z"/>
			</g>
			<g>
				<polygon class="st2" points="505.4,266.7 501.8,258.1 504,257.1 507.7,265.7 				"/>
			</g>
		</g>
		<g>
			<g>
				<path class="st2" d="M128.2,199.5c0.6-2.8,1.2-5.6,1.8-8.4c0.2,0,0.4,0.1,0.5,0.1c-0.1,0.5-0.1,1.1-0.2,1.6
					c-0.3,1.7-0.7,3.5-1.1,5.2C129.1,198.6,128.6,199,128.2,199.5L128.2,199.5z"/>
			</g>
			<g>
				<path class="st2" d="M128.9,201.3l-2-1.5l0.4-0.7l2-9.1l2.4,0.4l-0.1,1c0,0.2,0,0.3,0,0.5c0,0.4-0.1,0.8-0.1,1.2l-0.2,0.8
					c-0.3,1.5-0.6,3-1,4.4c-0.2,0.6-0.6,1.1-0.9,1.5c-0.1,0.1-0.1,0.1-0.2,0.2L128.9,201.3z"/>
			</g>
		</g>
		<g>
			<g>
				<path class="st2" d="M158.5,341.3c-1-2.4-1.9-4.8-2.8-7C156.6,336.5,157.6,338.9,158.5,341.3
					C158.6,341.3,158.5,341.3,158.5,341.3z"/>
			</g>
			<g>
				<polygon class="st2" points="157.9,342.5 157.6,341.7 154.8,334.7 156.7,333.9 160,342 				"/>
			</g>
		</g>
		<g>
			<g>
				<path class="st2" d="M139.1,296.4c0.4-0.2,0.8-0.4,1.3-0.5c0.6,1.6,1.1,3.3,1.7,4.9c-0.1,0.1-0.3,0.2-0.4,0.2
					C140.8,299.5,139.9,298,139.1,296.4z"/>
			</g>
			<g>
				<polygon class="st2" points="141.2,302.5 137.7,295.9 141,294.5 143.3,301.3 				"/>
			</g>
		</g>
		<g>
			<g>
				<path class="st2" d="M330.4,56.7c-2.1-0.3-4.2-0.5-6.6-0.9C325.6,55,329.3,55.6,330.4,56.7C330.4,56.8,330.4,56.7,330.4,56.7z"
					/>
			</g>
			<g>
				<path class="st2" d="M330.1,57.9l-0.2-0.2l-9.7-1.3l3.2-1.5c1.9-0.9,5.7-0.5,7.4,0.8l0.4,0.1l0.5,1.6L330.1,57.9z"/>
			</g>
		</g>
		<g>
			<g>
				<path class="st2" d="M167.9,362.5c0.6,1.5,1.2,3,1.8,4.5c-0.1,0-0.1,0.1-0.2,0.1c-0.7-1.5-1.3-2.9-2-4.4
					C167.7,362.5,167.8,362.5,167.9,362.5z"/>
			</g>
			<g>
				<polygon class="st2" points="169,368.3 166.2,362 168.5,361.1 171.1,367.4 				"/>
			</g>
		</g>
		<g>
			<g>
				<path class="st2" d="M110.2,225.2c0.7,1.5,1.4,2.9,2.1,4.4c-0.1,0-0.2,0.1-0.3,0.1C111.4,228.2,110.9,226.7,110.2,225.2
					C110.3,225.2,110.3,225.2,110.2,225.2z"/>
			</g>
			<g>
				<polygon class="st2" points="111.4,231.1 109.7,226.5 108.7,224.2 110.2,224.1 110.2,225.2 110.2,224.1 111,224.1 111.3,224.8 
					111.6,225.7 113.7,230.1 				"/>
			</g>
		</g>
		<g>
			<g>
				<path class="st2" d="M203.5,374.3c-1.3-0.6-2.6-1.3-4-1.9c0.2-0.3,0.3-0.5,0.5-0.8C201.1,372.5,202.3,373.4,203.5,374.3
					C203.4,374.3,203.5,374.3,203.5,374.3z"/>
			</g>
			<g>
				<path class="st2" d="M203.3,375.5l-0.5-0.4l-0.1-0.1l-4.6-2.2l1.7-2.7l0.9,0.7c1,0.8,2.1,1.7,3.1,2.5l2,1L203.3,375.5z"/>
			</g>
		</g>
		<g>
			<g>
				<path class="st2" d="M249,353.3c3.4-8.2,6.7-16.4,10.1-24.6c0.2,0.1,0.3,0.1,0.5,0.2c-0.2,0.6-0.4,1.1-0.6,1.7
					c-2.8,6.8-5.5,13.6-8.4,20.4c-0.6,1.3-0.8,2.4,0.3,3.5c-0.4,0.2-0.9,0.3-1.3,0.5C249.3,354.4,249.1,353.9,249,353.3z"/>
			</g>
			<g>
				<path class="st2" d="M248.9,356.3l-1.1-3l10.6-25.8l2.4,0.8l-0.5,1.5c-0.1,0.4-0.3,0.8-0.4,1.2l-1.8,4.4
					c-2.1,5.2-4.3,10.7-6.6,16c-0.5,1.3-0.5,1.8,0.1,2.4l1.1,1.1L248.9,356.3z"/>
			</g>
		</g>
		<g>
			<g>
				<path class="st2" d="M404.1,225.9c-0.8-0.6-1.7-1.2-2.6-1.9c-0.1,3.9-0.2,7.8-0.5,11.6c-1,13.8-4.8,26.7-11.2,38.9
					c-6,11.6-14,21.7-24.1,30c-5.2,4.2-10.9,7.8-16.6,11.4c-5.8,3.7-12.2,6.2-18.8,8.1c-4.2,1.2-8.5,2.1-12.8,2.9
					c-10.3,1.9-20.7,1.9-31,0.5c-11.1-1.5-21.6-5-31.6-10c-14.4-7.3-26.2-17.5-35.7-30.5c-4.1-5.6-7.4-11.6-10.3-17.9
					c-5.8-12.8-8.8-26.2-8.9-40.2c-0.1-12.7,2-25.1,6.6-37c6.2-16,15.8-29.6,28.9-40.7c11.4-9.7,24.3-16.6,38.8-20.5
					c17.6-4.7,35.2-4.8,52.8,0c16.3,4.5,30.7,12.6,43.1,24.3c6.6,6.3,12.2,13.4,16.9,21.2c5,8.4,8.9,17.3,11,26.8
					c1.3,5.8,2.1,11.8,2.9,17.7c0.2,1.3,0.5,2.4,1.6,3.2c0.6,0.4,1.1,1,1.7,1.6C404.3,225.6,404.2,225.7,404.1,225.9z M363.9,254
					c0.1-0.2,0.2-0.4,0.2-0.6c0.6,0.3,1.2,0.5,1.8,0.8c7.2,3,14.4,5.9,21.6,8.9c1,0.4,1.8,0.7,2.4-0.8c4.6-12.1,6.7-24.7,6.3-37.6
					c-0.1-2.8,0.6-5.8-1.5-7.8c0.3-0.8,0.7-1.3,0.7-1.7c-0.8-6.1-2.1-12.2-4-18c-2.8-8.6-7.1-16.5-12.2-23.9
					c-1.5-2.2-3.2-4.3-4.9-6.5c-0.1,0.1-0.3,0.2-0.4,0.3c0.3,2.4,0.5,4.8,0.8,7.2c-0.2,0-0.4,0-0.7,0c-0.3-2.7-0.6-5.3-1-7.9
					c-0.1-0.7-0.4-1.4-0.8-1.9c-7.7-8.7-16.7-15.8-27-21.2c-2.6-1.4-5.3-2.5-8.2-3.8c-3.6,8.9-7.1,17.4-10.6,25.9
					c-0.1-0.1-0.3-0.1-0.4-0.2c0.2-0.6,0.5-1.2,0.7-1.8c3-7.4,6-14.8,9.1-22.1c0.7-1.7,0.3-2.3-1.4-2.9c-9.9-3.7-20.1-5.8-30.7-6.1
					c-10.4-0.3-20.7,0.8-30.6,3.9c-5.4,1.7-10.6,4-15.7,6.4c-8.9,4.3-16.8,10.2-23.9,17.1c-8.7,8.6-15.6,18.5-20.6,29.7
					c-0.7,1.5-0.4,2.1,1.1,2.7c7.5,3,15,6.1,22.5,9.2c0.5,0.2,1,0.5,1.6,0.8c-0.1,0.2-0.2,0.4-0.3,0.5c-8.6-3.5-17.2-7-26.2-10.7
					c-1.5,5.3-3.2,10.2-4.4,15.3c-4.2,18.2-2.6,36.1,3.4,53.7c2.3,6.6,5.5,12.8,9.4,18.7c10.6,16.1,24.5,28.2,42.2,35.9
					c1.5,0.6,2.1,0.4,2.7-1.1c2.9-7.2,5.9-14.4,8.8-21.6c0.2-0.6,0.5-1.1,0.7-1.7c0.2,0.1,0.4,0.2,0.5,0.2
					c-3.4,8.3-6.8,16.7-10.3,25.1c0.8,0.4,1.4,0.8,2,1c4.3,1.3,8.6,2.8,13,3.9c10.8,2.6,21.7,3,32.6,1.6c6-0.8,11.9-2.3,17.7-4
					c4.7-1.4,9.3-3.2,13.6-5.5c6.5-3.4,12.7-7.3,18.3-12.1c11.4-9.8,20.3-21.4,26.4-35.1c0.6-1.3,0.4-1.9-1-2.4
					c-7.2-2.9-14.4-5.9-21.6-8.8C365.2,254.5,364.5,254.2,363.9,254z"/>
			</g>
			<g>
				<path class="st2" d="M300.8,329.4c-4.7,0-9.5-0.3-14.4-1c-10.8-1.5-21.6-4.9-31.9-10.1c-14.3-7.2-26.4-17.6-36.1-30.8
					c-3.9-5.3-7.3-11.2-10.4-18.1c-5.8-12.8-8.9-26.4-9-40.6c-0.1-13,2.1-25.6,6.7-37.4c6.3-16.2,16.1-30,29.2-41.1
					c11.7-9.9,24.9-16.9,39.2-20.7c18-4.8,35.9-4.8,53.3,0c16.5,4.5,31.1,12.8,43.5,24.6c6.5,6.2,12.2,13.4,17.1,21.4
					c5.4,8.9,9.1,18,11.1,27.1c1.1,4.8,1.8,9.8,2.5,14.6c0.2,1.1,0.3,2.1,0.5,3.2c0.2,1.3,0.4,2,1.2,2.6c0.5,0.4,0.9,0.8,1.3,1.2
					c0.2,0.2,0.3,0.3,0.5,0.5l0.6,0.6l-1.5,2l-1.8-1.3c0,0.6,0,1.2-0.1,1.8c-0.1,2.7-0.2,5.3-0.3,7.9c-1,13.6-4.8,26.8-11.3,39.3
					c-6.2,12-14.4,22.2-24.4,30.3c-4.8,3.9-10.1,7.3-15.2,10.5l-1.5,0.9c-5.4,3.4-11.6,6.1-19.1,8.2c-3.8,1.1-7.9,2-12.9,3
					C312.2,328.9,306.6,329.4,300.8,329.4z M301,128c-8.7,0-17.5,1.2-26.3,3.5c-14,3.7-27,10.5-38.4,20.3
					c-12.8,10.9-22.5,24.5-28.6,40.3c-4.5,11.6-6.7,23.9-6.6,36.6c0.1,13.9,3.1,27.2,8.8,39.8c3.1,6.8,6.4,12.6,10.2,17.8
					c9.4,12.9,21.3,23.1,35.3,30.2c10.1,5.1,20.6,8.5,31.2,9.9c10.7,1.5,21,1.3,30.7-0.5c5-0.9,9.1-1.9,12.7-2.9
					c7.2-2.1,13.3-4.7,18.5-8l1.5-0.9c5.1-3.2,10.3-6.5,15-10.3c9.7-8,17.8-18,23.9-29.7c6.4-12.3,10.1-25.2,11.1-38.5
					c0.2-2.6,0.3-5.1,0.3-7.8c0-1.2,0.1-2.5,0.1-3.7v-1.2c-0.3-0.6-0.4-1.3-0.5-2c-0.2-1.1-0.3-2.1-0.5-3.2
					c-0.7-4.8-1.4-9.7-2.5-14.5c-2-8.9-5.6-17.8-10.9-26.5c-4.7-7.9-10.4-14.9-16.7-21c-12.2-11.6-26.5-19.7-42.6-24.1
					C318.4,129.2,309.7,128,301,128z M300.3,324.4c-7.1,0-14-0.8-20.7-2.4c-3.2-0.8-6.4-1.8-9.5-2.8c-1.2-0.4-2.4-0.8-3.6-1.1
					c-0.5-0.2-1-0.4-1.4-0.6c-0.2-0.1-0.5-0.2-0.7-0.4l-0.9-0.4l0,0c-0.6,0-1.1-0.2-1.6-0.4c-17.5-7.7-31.8-19.9-42.6-36.3
					c-4.2-6.4-7.3-12.6-9.5-18.9c-6.3-18.3-7.5-36.6-3.4-54.2c0.8-3.5,1.8-6.8,2.9-10.4c0.5-1.6,1-3.3,1.5-4.9l0.3-1.1l0.6,0.2
					c0-0.6,0.2-1.2,0.4-1.7c5.1-11.3,12.1-21.4,20.8-30c7.6-7.5,15.5-13.2,24.1-17.3c6.1-2.9,11.1-5,15.9-6.5c9.5-3,19.6-4.3,30.9-4
					c10.5,0.3,20.9,2.4,31,6.1c0.5,0.2,1.1,0.4,1.6,0.8l0.1-0.2l1,0.5c0.9,0.4,1.8,0.8,2.7,1.2c1.9,0.9,3.7,1.7,5.5,2.6
					c10.5,5.5,19.6,12.7,27.3,21.4c0.4,0.5,0.8,1.2,1,2l0.6-0.4l0.6,0.7c0.5,0.7,1,1.3,1.6,2c1.1,1.4,2.3,2.9,3.4,4.5
					c5.6,8.1,9.6,16.1,12.3,24.2c1.9,5.8,3.3,11.9,4,18.2c0.1,0.6-0.2,1.1-0.4,1.6c0,0,0,0,0,0.1c1.4,1.8,1.3,4.1,1.3,6.2
					c0,0.6,0,1.2,0,1.8c0.4,13-1.7,25.8-6.3,38c-0.3,0.8-0.7,1.3-1.3,1.6c0.3,0.8,0,1.6-0.3,2.2c-6.1,13.6-15,25.5-26.6,35.4
					c-5.3,4.5-11.3,8.5-18.5,12.2c-4.4,2.3-9,4.1-13.8,5.5c-7,2-12.6,3.3-17.8,4C308.5,324.2,304.4,324.4,300.3,324.4z M266.1,315.7
					c0.4,0.2,0.7,0.4,1,0.5c1.2,0.4,2.4,0.7,3.6,1.1c3.1,1,6.2,2,9.4,2.7c10.3,2.5,21.2,3,32.3,1.6c5.1-0.7,10.7-1.9,17.5-3.9
					c4.6-1.4,9.1-3.2,13.4-5.4c7-3.6,12.9-7.5,18.1-12c11.4-9.8,20.2-21.4,26.1-34.7c0.2-0.5,0.2-0.7,0.2-0.7l0,0
					c0,0-0.1-0.1-0.6-0.3c-5.4-2.1-10.8-4.4-16-6.5l-8.5-3.5l1-2.4l1,0.3l7.3,3c5.4,2.2,10.8,4.4,16.2,6.6c0.3,0.1,0.7,0.3,0.8,0.3
					l0,0c0,0,0.1-0.1,0.2-0.5c4.5-11.9,6.6-24.5,6.2-37.2c0-0.6,0-1.3,0-1.9c0.1-2.1,0.1-4-1.2-5.2l-0.5-0.5l0.3-0.6
					c0.1-0.3,0.3-0.6,0.4-0.8c0.1-0.2,0.2-0.4,0.2-0.5c-0.8-6.1-2.1-12.1-4-17.8c-2.6-8-6.6-15.7-12-23.7c-1-1.4-2.1-2.9-3.2-4.2
					l0.6,5.6l-2.7,0.2l-0.4-3.1c-0.2-1.9-0.5-3.8-0.7-5.8c-0.1-0.6-0.3-1.1-0.6-1.4c-7.5-8.5-16.4-15.6-26.7-21
					c-1.7-0.9-3.5-1.7-5.4-2.6c-0.6-0.3-1.2-0.5-1.8-0.8L327,166.5l-2.3-1l1.1-2.7c0.8-2,1.6-4,2.4-6c2.2-5.3,4.4-10.8,6.7-16.2
					c0.3-0.8,0.2-1,0.2-1s-0.1-0.2-1-0.5c-9.9-3.7-20.1-5.7-30.3-6c-11.1-0.3-21,0.9-30.3,3.9c-4.7,1.5-9.6,3.5-15.6,6.4
					c-8.4,4-16.1,9.5-23.6,16.9c-8.5,8.4-15.4,18.3-20.4,29.4c-0.3,0.7-0.3,0.9-0.3,0.9s0.1,0.2,0.8,0.4c5.9,2.3,11.8,4.8,17.6,7.2
					l4.9,2c0.4,0.2,0.8,0.4,1.2,0.6l1.4,0.7l-1.2,2.3l-26-10.6c-0.4,1.3-0.8,2.6-1.2,3.9c-1.1,3.5-2.1,6.8-2.9,10.2
					c-3.9,17.3-2.8,35.2,3.4,53.1c2.1,6.1,5.1,12.2,9.2,18.4c10.6,16.1,24.6,28,41.7,35.6c0.7,0.3,0.9,0.3,0.9,0.3s0.2-0.1,0.4-0.8
					c2.1-5.3,4.4-10.8,6.5-16l3.4-8.4l2.4,1.1L266.1,315.7z"/>
			</g>
		</g>
		<g>
			<g>
				<path class="st2" d="M423.8,278.5c-7.4-3-14.7-6-22.1-9.1c0-0.1,0.1-0.3,0.1-0.4c0.4,0.1,0.8,0.1,1.1,0.3
					c6.5,2.6,12.9,5.3,19.4,8C422.9,277.5,423.3,278.1,423.8,278.5L423.8,278.5z"/>
			</g>
			<g>
				<path class="st2" d="M423,279.6l-0.1-0.4l-22.5-9.2l0.8-2.2l0.9,0.2c0.1,0,0.2,0,0.3,0.1c0.3,0.1,0.6,0.1,1,0.3l0.9,0.4
					c6.1,2.5,12.3,5,18.5,7.6c0.6,0.2,1,0.7,1.4,1.1c0.1,0.1,0.2,0.2,0.2,0.2l0.5,0.2v1.6L423,279.6z"/>
			</g>
		</g>
		<g>
			<g>
				
					<ellipse transform="matrix(0.379 -0.9254 0.9254 0.379 107.0239 392.9671)" class="st2" cx="346.3" cy="116.7" rx="16.1" ry="0.2"/>
			</g>
			<g>
				<polygon class="st2" points="342.6,128.7 340.5,127.8 349.9,104.8 352.1,105.7 				"/>
			</g>
		</g>
		<g>
			<g>
				<path class="st2" d="M179.1,178.3c0.6,0,1.4-0.1,1.9,0.1c6.3,2.5,12.6,5.1,18.9,7.7c0.2,0.1,0.4,0.2,0.6,0.4
					c-0.1,0.2-0.1,0.3-0.2,0.5C193.2,184.1,186.1,181.2,179.1,178.3L179.1,178.3z"/>
			</g>
			<g>
				<path class="st2" d="M200.8,188.3l-0.9-0.4c-7-2.9-14-5.7-20.9-8.6h-1.2l0.4-1.5l0.4-0.8l0.7,0.3c0.1,0,0.2,0,0.3,0
					c0.5,0,1.1-0.1,1.7,0.2c5.5,2.2,11.2,4.5,16.6,6.8l2.3,0.9c0.3,0.1,0.5,0.3,0.6,0.4l0.8,0.6L200.8,188.3z"/>
			</g>
		</g>
		<g>
			<g>
				<path class="st2" d="M192.6,273.5c1.4-0.5,2.7-1,3.9-1.4c-0.8,1.7-3.5,1-3.9,3.6c-1.2-2.7-2.5-5.4-3.7-8.2
					c0.2-0.1,0.3-0.2,0.5-0.3c0.5,1,1.1,2,1.6,3S192,272.3,192.6,273.5z"/>
			</g>
			<g>
				<path class="st2" d="M193.2,279.3l-5.5-12.2l2.2-1.3l1,1.9c0.4,0.7,0.7,1.4,1.1,2.1s0.7,1.5,1.1,2.2l0.1,0.2l5.5-2l-1.2,2.3
					c-0.5,1-1.5,1.4-2.2,1.8c-1,0.4-1.4,0.6-1.5,1.5L193.2,279.3z"/>
			</g>
		</g>
		<g>
			<g>
				<path class="st2" d="M375.5,140.9c-0.6,4.5-1.3,8.9-1.9,13.4c-0.2,0-0.5-0.1-0.7-0.1c0.6-4.5,1.3-8.9,1.9-13.4
					C375,140.8,375.3,140.8,375.5,140.9z"/>
			</g>
			<g>
				<polygon class="st2" points="374.5,155.4 371.7,155 373.9,139.6 376.7,140 				"/>
			</g>
		</g>
		<g>
			<g>
				<path class="st2" d="M446.8,244.5c4.4,0.3,8.9,0.6,13.3,0.9c-4.5,0.7-8.9,0.3-13.3-0.4C446.7,244.8,446.7,244.7,446.8,244.5z"/>
			</g>
			<g>
				<path class="st2" d="M455.2,246.8c-3,0-5.9-0.4-8.7-0.8l-1-0.2l0.2-2.5l22.9,1.6l-8.5,1.4C458.5,246.7,456.9,246.8,455.2,246.8z
					"/>
			</g>
		</g>
		<g>
			<g>
				<path class="st2" d="M382.2,122.2c-1.7,4.1-3.3,8.1-5,12.2C376.7,133,379.8,124.5,382.2,122.2z"/>
			</g>
			<g>
				<path class="st2" d="M377.1,137.2l-0.9-2.4c-0.7-2,2.8-10.9,5.2-13.3l3.5-3.4L377.1,137.2z"/>
			</g>
		</g>
		<g>
			<g>
				<path class="st2" d="M392.9,105.1c-2.5,3.6-5,7.2-7.6,10.8c1.6-4.2,4.4-7.7,7.1-11.2C392.6,104.8,392.8,104.9,392.9,105.1z"/>
			</g>
			<g>
				<path class="st2" d="M381.3,123.3l3-7.8c1.6-4.1,4.2-7.5,6.8-10.8l1.2-1.5l2,1.7L381.3,123.3z"/>
			</g>
		</g>
		<g>
			<g>
				<path class="st2" d="M420.7,236.9c-3.8-2.2-7.6-4.4-11.4-6.7c0.1-0.2,0.3-0.5,0.4-0.7c3.8,2.3,7.6,4.5,11.3,6.8
					C420.9,236.5,420.8,236.7,420.7,236.9z"/>
			</g>
			<g>
				<polygon class="st2" points="421.2,238.3 407.9,230.6 409.3,228.2 422.3,236 				"/>
			</g>
		</g>
		<g>
			<g>
				<path class="st2" d="M439.8,243.9c-4.2-1.3-8.3-2.6-12.5-3.9c0.1-0.2,0.1-0.4,0.2-0.6c4.2,1.3,8.3,2.6,12.5,3.9
					C440,243.4,439.9,243.6,439.8,243.9z"/>
			</g>
			<g>
				<polygon class="st2" points="440.5,245.1 426.1,240.6 426.9,238 441.4,242.6 				"/>
			</g>
		</g>
		<g>
			<g>
				<path class="st2" d="M395.3,188.8c3-1.3,6-2.5,9-3.8c0-0.1-0.1-0.1-0.1-0.2c-3,1.2-6,2.3-9.1,3.5
					C395.1,188.5,395.2,188.6,395.3,188.8z"/>
			</g>
			<g>
				<polygon class="st2" points="394.7,190.1 393.7,187.7 404.7,183.5 405.6,185.6 				"/>
			</g>
		</g>
		<g>
			<g>
				<path class="st2" d="M177.7,280.3c3.1-1.3,6.2-2.6,9.3-3.9c0-0.1,0-0.1-0.1-0.2c-3.1,1.2-6.3,2.5-9.4,3.7
					C177.6,280,177.7,280.1,177.7,280.3z"/>
			</g>
			<g>
				<polygon class="st2" points="177.2,281.6 176.2,279.3 187.5,274.8 188.3,276.7 187.5,277.3 				"/>
			</g>
		</g>
		<g>
			<g>
				<path class="st2" d="M186.6,263.5c-1.8-2.3-3.6-4.7-5.5-7.1C182.5,256.6,185.8,260.6,186.6,263.5z"/>
			</g>
			<g>
				<path class="st2" d="M189,268.2L178.7,255l2.5,0.4c2,0.3,5.5,4.9,6.3,7.8L189,268.2z"/>
			</g>
		</g>
		<g>
			<g>
				<path class="st2" d="M194.7,279.8c0.6,2.9,1.1,5.9,1.7,8.8c-0.2,0-0.5,0.1-0.7,0.1c-0.6-2.9-1.1-5.9-1.7-8.8
					C194.3,280,194.5,279.9,194.7,279.8z"/>
			</g>
			<g>
				<polygon class="st2" points="194.9,290 192.8,279.3 195.5,278.6 197.6,289.5 				"/>
			</g>
		</g>
		<g>
			<g>
				<path class="st2" d="M195.7,302.8c0.1-3.4,0.2-6.4,0.4-9.4C197.1,294.6,196.9,300.5,195.7,302.8z"/>
			</g>
			<g>
				<path class="st2" d="M194.5,307.3l0.7-16.7l1.7,2.1c1.4,1.8,1,8.1-0.3,10.5L194.5,307.3z"/>
			</g>
		</g>
		<g>
			<g>
				<path class="st2" d="M185.5,329.9c-1.9,2.3-3.8,4.6-5.7,6.9c-0.2-0.2-0.4-0.3-0.6-0.5c1.9-2.3,3.8-4.5,5.7-6.8
					C185.1,329.7,185.3,329.8,185.5,329.9z"/>
			</g>
			<g>
				<polygon class="st2" points="180,338.2 177.8,336.5 184.7,328.2 187,329.7 				"/>
			</g>
		</g>
		<g>
			<g>
				<path class="st2" d="M192.5,315.5c0.8-2.8,1.6-5.7,2.4-8.6C195.6,308.2,194.5,312.9,192.5,315.5z"/>
			</g>
			<g>
				<path class="st2" d="M190.1,320.5l4.5-16.3l1.2,2.2c1.1,2-0.5,7.1-2.4,9.7L190.1,320.5z"/>
			</g>
		</g>
		<g>
			<g>
				<path class="st2" d="M145.8,237c2.8,0.6,5.6,1.3,8.5,1.9c0,0.2-0.1,0.4-0.1,0.6c-2.8-0.6-5.7-1.1-8.5-1.7
					C145.7,237.5,145.8,237.3,145.8,237z"/>
			</g>
			<g>
				<polygon class="st2" points="154.9,240.7 144.4,238.6 145,235.8 155.5,238.1 				"/>
			</g>
		</g>
		<g>
			<g>
				<path class="st2" d="M177.7,252.9c-2.3-1.8-4.6-3.7-7-5.5c0.1-0.2,0.3-0.4,0.4-0.5c2.3,1.8,4.6,3.7,7,5.5
					C178,252.5,177.9,252.7,177.7,252.9z"/>
			</g>
			<g>
				<polygon class="st2" points="177.9,254.3 169.4,247.5 171,245.4 179.6,252.2 				"/>
			</g>
		</g>
		<g>
			<g>
				<path class="st2" d="M192.2,318.1c-1.3,2.6-2.6,5.2-3.9,7.8c-0.2-0.1-0.4-0.2-0.6-0.3c1.3-2.6,2.7-5.2,4-7.8
					C191.8,317.9,192,318,192.2,318.1z"/>
			</g>
			<g>
				<polygon class="st2" points="188.7,327.3 186.2,326 191.1,316.5 193.5,317.6 				"/>
			</g>
		</g>
		<g>
			<g>
				<path class="st2" d="M166.8,244.8c-2.7-1.2-5.3-2.5-8-3.7c0.1-0.2,0.2-0.4,0.3-0.6c2.7,1.2,5.3,2.5,8,3.7
					C167,244.4,166.9,244.6,166.8,244.8z"/>
			</g>
			<g>
				<polygon class="st2" points="167.3,246.2 157.5,241.6 158.6,239.1 168.4,243.7 				"/>
			</g>
		</g>
		<g>
			<g>
				<path class="st2" d="M198,271.5c1-0.5,2.1-1,3.1-1.5c0.1,0.3,0.2,0.5,0.3,0.8c-1.2,0.2-2.3,0.4-3.5,0.6
					C198,271.4,198,271.4,198,271.5z"/>
			</g>
			<g>
				<polygon class="st2" points="197.3,272.9 196.7,270.5 198.2,270.2 201.6,268.6 202.9,271.5 198.8,272.2 				"/>
			</g>
		</g>
		<g>
			<g>
				<path class="st2" d="M275.7,217.7c-8.4-3.4-16.8-6.9-25.2-10.3c0-0.1,0.1-0.2,0.1-0.3c8.4,3.4,16.8,6.9,25.2,10.3
					C275.8,217.5,275.8,217.6,275.7,217.7z"/>
			</g>
			<g>
				<polygon class="st2" points="276.3,219 249.2,208 250.1,205.8 277.2,216.9 				"/>
			</g>
		</g>
		<g>
			<g>
				<path class="st2" d="M290.5,253.3c-3.5,8.4-6.9,16.9-10.4,25.3c-0.1,0-0.2-0.1-0.3-0.1c3.5-8.4,6.9-16.9,10.4-25.3
					C290.3,253.2,290.4,253.3,290.5,253.3z"/>
			</g>
			<g>
				<polygon class="st2" points="280.7,279.9 278.5,279.1 289.7,251.9 291.8,252.7 				"/>
			</g>
		</g>
		<g>
			<g>
				<path class="st2" d="M310.7,202.8c3.4-8.4,6.9-16.8,10.3-25.2c0.1,0,0.2,0.1,0.3,0.1c-3.4,8.4-6.9,16.8-10.3,25.3
					C310.9,202.9,310.8,202.8,310.7,202.8z"/>
			</g>
			<g>
				<polygon class="st2" points="311.5,204.3 309.4,203.3 320.5,176.2 322.7,177.1 				"/>
			</g>
		</g>
		<g>
			<g>
				<path class="st2" d="M326.3,238c8.4,3.5,16.9,6.9,25.3,10.4c0,0.1-0.1,0.2-0.1,0.3c-8.4-3.5-16.9-6.9-25.3-10.4
					C326.2,238.2,326.3,238.1,326.3,238z"/>
			</g>
			<g>
				<polygon class="st2" points="352.1,250 324.8,238.9 325.7,236.7 352.9,247.8 				"/>
			</g>
		</g>
		<g>
			<g>
				<path class="st2" d="M300.8,227.9c-1.8,4.3-3.5,8.6-5.4,13.1c-0.1-0.4-0.2-0.6-0.1-0.8c1.5-3.7,3-7.4,4.5-11
					C300.1,228.7,300.5,228.3,300.8,227.9C300.9,227.9,300.8,227.9,300.8,227.9z"/>
			</g>
			<g>
				<path class="st2" d="M295.1,244.6l-0.6-3.5c0-0.1,0-0.2-0.1-0.3c-0.1-0.3-0.2-0.6,0-1c1.6-3.9,3-7.5,4.5-11
					c0.2-0.5,0.5-0.9,0.8-1.2c0.1-0.1,0.1-0.1,0.2-0.2l0.3-0.7l0.8,0.1l-0.2,0.9l0.2,0.2l0.8,0.3L295.1,244.6z"/>
			</g>
		</g>
		<g>
			<g>
				<path class="st2" d="M300.8,227.9C300.8,227.9,300.9,227.9,300.8,227.9c-2.8-1.1-5.7-2.1-8.5-3.2c-1.3-0.5-2.6-1.1-3.9-1.6
					c0.1-0.2,0.2-0.5,0.3-0.7c4.2,1.7,8.4,3.4,12.6,5.1l0,0C301.1,227.6,301,227.7,300.8,227.9z"/>
			</g>
			<g>
				<path class="st2" d="M301.2,229l-2.4-0.4l0.2-0.3l-1.1-0.4c-2-0.8-4-1.5-6-2.3c-0.9-0.4-1.8-0.7-2.7-1.1l-2.2-0.9l1.1-2.6
					l13.5,5.5l-0.2,0.5l1.3,0.5L301.2,229z"/>
			</g>
		</g>
		<g>
			<g>
				<path class="st2" d="M374.1,197.5c3-1.1,5.9-2.2,8.9-3.2c0-0.1,0-0.1,0-0.2c-2.9,1.2-5.8,2.5-8.7,3.7
					C374.2,197.7,374.2,197.6,374.1,197.5z"/>
			</g>
			<g>
				<polygon class="st2" points="373.9,199.1 372.6,197 379.7,194.4 383.6,192.7 384.2,194.8 383.4,195.3 380.5,196.3 				"/>
			</g>
		</g>
		<g>
			<g>
				<path class="st2" d="M313.6,233.2c-3.9-1.6-7.9-3.2-11.8-4.8c0-0.1,0.1-0.2,0.1-0.3c3.9,1.6,7.9,3.2,11.8,4.9
					C313.7,233,313.7,233.1,313.6,233.2z"/>
			</g>
			<g>
				<polygon class="st2" points="314.1,234.5 300.4,228.9 301.4,226.7 315.1,232.3 				"/>
			</g>
		</g>
		<g>
			<g>
				<path class="st2" d="M377,183.6c1.2,3.3,2.4,6.6,3.6,10c-0.2,0.1-0.5,0.2-0.7,0.2c-1.2-3.3-2.4-6.7-3.6-10
					C376.5,183.7,376.8,183.6,377,183.6z"/>
			</g>
			<g>
				<polygon class="st2" points="379.3,195.1 375,183 377.7,182.3 381.9,194.1 				"/>
			</g>
		</g>
		<g>
			<g>
				<path class="st2" d="M301.2,227.5c0-0.2-0.2-0.5-0.1-0.7c1.5-3.8,3.1-7.5,4.9-11.2C304.4,219.5,302.8,223.5,301.2,227.5
					L301.2,227.5z"/>
			</g>
			<g>
				<path class="st2" d="M302.5,229.1l-1.9-0.7l-0.6-0.7l0.1-0.3c-0.1-0.3-0.1-0.6,0-1c1.6-3.9,3.1-7.6,5-11.3l1.9,0.9l-0.1,0.3
					c-1.5,3.8-3.1,7.5-4.6,11.3L302.5,229.1z"/>
			</g>
		</g>
		<g>
			<g>
				<path class="st2" d="M364.3,201.7c-2.3,0.8-4.6,1.5-7,2.3v0.1c2.2-1,4.5-1.9,6.7-2.9C364.2,201.4,364.2,201.5,364.3,201.7z"/>
			</g>
			<g>
				<polygon class="st2" points="356.6,205.6 356.2,203.4 357,203 358.3,202.6 364.6,199.9 365.7,202.3 359,204.5 				"/>
			</g>
		</g>
		<g>
			<g>
				<path class="st2" d="M385.5,204.4c-0.8-1.5-1.7-3-2.5-4.5c0.2-0.1,0.4-0.2,0.6-0.3c0.8,1.5,1.7,3,2.5,4.5
					C385.9,204.1,385.7,204.3,385.5,204.4z"/>
			</g>
			<g>
				<polygon class="st2" points="385.1,205.8 381.6,199.5 383.9,198.2 384.5,199.1 387.5,204.4 				"/>
			</g>
		</g>
	</g>
	<g>
		<path class="st0" d="M405.6,257.2l-4.7,2.7c-19.1,11-43.6,4.4-54.6-14.6l-85.4-148c-11-19.1-4.4-43.6,14.6-54.6l4.7-2.7
			c19.1-11,43.6-4.4,54.6,14.6l85.4,148C431.3,221.6,424.7,246.2,405.6,257.2z"/>
	</g>
	<g>
		<path class="st1" d="M321.3,403.5l-4.7,2.7c-19.1,11-43.6,4.4-54.6-14.6l-85.4-148c-11-19.1-4.4-43.6,14.6-54.6l4.7-2.7
			c19.1-11,43.6-4.4,54.6,14.6l85.4,148C346.9,367.9,340.4,392.5,321.3,403.5z"/>
	</g>
	<g>
		<path class="st1" d="M490,403.5l-4.7,2.7c-19.1,11-43.6,4.4-54.6-14.6l-85.4-148c-11-19.1-4.4-43.6,14.6-54.6l4.7-2.7
			c19.1-11,43.6-4.4,54.6,14.6l85.4,148C515.6,367.9,509,392.5,490,403.5z"/>
	</g>
	<g>
		<g>
			<g>
				<path class="st1" d="M238,188.9l-4.7-2.7c-19.1-11-43.6-4.4-54.6,14.6l-85.4,148c-11,19.1-4.4,43.6,14.6,54.6l4.7,2.7
					c19.1,11,43.6,4.4,54.6-14.6l85.4-148C263.7,224.5,257.1,199.9,238,188.9z"/>
			</g>
		</g>
	</g>
	<g>
		<g>
			<g>
				<path class="st0" d="M322.4,42.6l-4.7-2.7c-19.1-11-43.6-4.4-54.6,14.6l-85.4,148c-11,19.1-4.4,43.6,14.6,54.6l4.7,2.7
					c19.1,11,43.6,4.4,54.6-14.6l85.4-148C348,78.2,341.4,53.6,322.4,42.6z"/>
			</g>
		</g>
	</g>
	<g>
		<g>
			<g>
				<path class="st1" d="M407.8,188.9l-4.7-2.7c-19.1-11-43.6-4.4-54.6,14.6l-85.4,148c-11,19.1-4.4,43.6,14.6,54.6l4.7,2.7
					c19.1,11,43.6,4.4,54.6-14.6l85.4-148C433.4,224.5,426.8,199.9,407.8,188.9z"/>
			</g>
		</g>
	</g>
	<g>
		<g>
			<g>
				<polygon class="st3" points="315.5,75 300.7,63.3 283.1,70.2 280.3,88.9 295.1,100.7 312.7,93.7 				"/>
			</g>
			<g>
				<g>
					<polygon class="st3" points="469.5,354.1 451.2,358.9 446.1,377.1 459.4,390.6 477.7,385.8 482.7,367.6 					"/>
				</g>
				<g>
					<polygon class="st3" points="316.5,361.4 299.3,353.5 283.9,364.5 285.7,383.3 302.9,391.2 318.3,380.2 					"/>
				</g>
				<g>
					<polygon class="st3" points="142.7,358.2 124.2,354.5 111.7,368.7 117.8,386.6 136.3,390.3 148.8,376.1 					"/>
				</g>
			</g>
			<g>
				<g>
					<polygon class="st3" points="386.1,207.9 368.5,214.9 365.7,233.6 380.5,245.3 398.1,238.4 400.9,219.7 					"/>
				</g>
				<g>
					<polygon class="st3" points="226.5,214 208.5,208.1 194.5,220.8 198.4,239.3 216.4,245.1 230.4,232.5 					"/>
				</g>
			</g>
		</g>
	</g>
</g>
</svg>
