<?xml version="1.0" encoding="utf-8"?>
<!-- Generator: Adobe Illustrator 22.0.1, SVG Export Plug-In . SVG Version: 6.00 Build 0)  -->
<svg version="1.1" id="Layer_1" xmlns="http://www.w3.org/2000/svg" xmlns:xlink="http://www.w3.org/1999/xlink" x="0px" y="0px"
	 viewBox="0 0 500 500" style="enable-background:new 0 0 500 500;" xml:space="preserve">
<style type="text/css">
	.st0{fill:#D8D8D8;}
	.st1{fill:#FFFFFF;stroke:#FFFFFF;stroke-width:22;stroke-miterlimit:10;}
	.st2{fill:none;stroke:#BB2610;stroke-width:8;stroke-miterlimit:10;}
	.st3{fill:#FD4C3B;}
	.st4{opacity:0.27;fill:#FFFFFF;}
	.st5{opacity:0.27;fill:none;stroke:#FFFFFF;stroke-width:4;stroke-linecap:round;stroke-miterlimit:10;}
	.st6{fill:#FFFFFF;}
	.st7{fill:none;stroke:#BB2610;stroke-width:4;stroke-miterlimit:10;}
	.st8{fill:#D73512;}
	.st9{opacity:0.27;}
</style>
<g>
	<g>
		<g>
			<path class="st0" d="M424.2,170H130.1c-4.3,0-7.8-3.5-7.8-7.8v0c0-4.3,3.5-7.8,7.8-7.8h294.1c4.3,0,7.8,3.5,7.8,7.8v0
				C431.9,166.5,428.4,170,424.2,170z"/>
			<path class="st0" d="M369.4,197.4H75.3c-4.3,0-7.8-3.5-7.8-7.8v0c0-4.3,3.5-7.8,7.8-7.8h294.1c4.3,0,7.8,3.5,7.8,7.8v0
				C377.1,193.9,373.6,197.4,369.4,197.4z"/>
			<path class="st0" d="M396.8,224.8H102.7c-4.3,0-7.8-3.5-7.8-7.8v0c0-4.3,3.5-7.8,7.8-7.8h294.1c4.3,0,7.8,3.5,7.8,7.8v0
				C404.5,221.3,401,224.8,396.8,224.8z"/>
			<path class="st0" d="M378.5,252.2H84.4c-4.3,0-7.8-3.5-7.8-7.8v0c0-4.3,3.5-7.8,7.8-7.8h294.1c4.3,0,7.8,3.5,7.8,7.8v0
				C386.3,248.7,382.8,252.2,378.5,252.2z"/>
			<path class="st0" d="M415,279.6H121c-4.3,0-7.8-3.5-7.8-7.8v0c0-4.3,3.5-7.8,7.8-7.8H415c4.3,0,7.8,3.5,7.8,7.8v0
				C422.8,276.1,419.3,279.6,415,279.6z"/>
		</g>
		<path class="st0" d="M378.5,307H84.4c-4.3,0-7.8-3.5-7.8-7.8v0c0-4.3,3.5-7.8,7.8-7.8h294.1c4.3,0,7.8,3.5,7.8,7.8v0
			C386.3,303.5,382.8,307,378.5,307z"/>
	</g>
	<g>
		<g>
			<path class="st1" d="M311.1,271.9c-40.5,0-81,0-121.4,0c-1.4-0.2-2.8-0.5-4.2-0.7c-18-3.8-30.9-20.9-27.8-40.2
				c2.2-13.5,10-22.8,22.7-27.9c0.7-0.3,0.9-0.6,0.9-1.3c0.2-3.1,0.2-6.3,0.8-9.4c3.2-17.8,18.2-32.3,36.2-35
				c1.9-0.3,3.9-0.5,5.8-0.7c0.8,0,1.6,0,2.4,0c1.3,0.1,2.6,0.3,3.9,0.4c16,2.2,27.5,10.6,34.8,24.9c0.2,0.3,0.4,0.7,0.5,1
				c0.4-0.3,0.8-0.5,1.1-0.7c7.1-4.2,14.7-5.7,22.7-3.9c12.3,2.6,20.4,10.1,24.4,21.9c0.2,0.6,0.4,1,1.1,1.2
				c14.3,3.6,22.9,12.8,26.4,26.9c0.4,1.7,0.6,3.5,0.9,5.3c0,1.8,0,3.5,0,5.3c-0.2,1.4-0.4,2.9-0.7,4.3
				c-3.1,13.9-11.3,23.3-25.1,27.5C314.7,271.4,312.9,271.6,311.1,271.9z"/>
			<polygon class="st1" points="233.5,238.7 264.5,238.7 251.5,264.7 276.5,264.7 230.5,315.7 240.5,281.7 217.5,281.7 			"/>
		</g>
		<g>
			<g>
				<path class="st2" d="M311.1,271.9c-40.5,0-81,0-121.4,0c-1.4-0.2-2.8-0.5-4.2-0.7c-18-3.8-30.9-20.9-27.8-40.2
					c2.2-13.5,10-22.8,22.7-27.9c0.7-0.3,0.9-0.6,0.9-1.3c0.2-3.1,0.2-6.3,0.8-9.4c3.2-17.8,18.2-32.3,36.2-35
					c1.9-0.3,3.9-0.5,5.8-0.7c0.8,0,1.6,0,2.4,0c1.3,0.1,2.6,0.3,3.9,0.4c16,2.2,27.5,10.6,34.8,24.9c0.2,0.3,0.4,0.7,0.5,1
					c0.4-0.3,0.8-0.5,1.1-0.7c7.1-4.2,14.7-5.7,22.7-3.9c12.3,2.6,20.4,10.1,24.4,21.9c0.2,0.6,0.4,1,1.1,1.2
					c14.3,3.6,22.9,12.8,26.4,26.9c0.4,1.7,0.6,3.5,0.9,5.3c0,1.8,0,3.5,0,5.3c-0.2,1.4-0.4,2.9-0.7,4.3
					c-3.1,13.9-11.3,23.3-25.1,27.5C314.7,271.4,312.9,271.6,311.1,271.9z"/>
				<path class="st3" d="M311.1,271.9c-40.5,0-81,0-121.4,0c-1.4-0.2-2.8-0.5-4.2-0.7c-18-3.8-30.9-20.9-27.8-40.2
					c2.2-13.5,10-22.8,22.7-27.9c0.7-0.3,0.9-0.6,0.9-1.3c0.2-3.1,0.2-6.3,0.8-9.4c3.2-17.8,18.2-32.3,36.2-35
					c1.9-0.3,3.9-0.5,5.8-0.7c0.8,0,1.6,0,2.4,0c1.3,0.1,2.6,0.3,3.9,0.4c16,2.2,27.5,10.6,34.8,24.9c0.2,0.3,0.4,0.7,0.5,1
					c0.4-0.3,0.8-0.5,1.1-0.7c7.1-4.2,14.7-5.7,22.7-3.9c12.3,2.6,20.4,10.1,24.4,21.9c0.2,0.6,0.4,1,1.1,1.2
					c14.3,3.6,22.9,12.8,26.4,26.9c0.4,1.7,0.6,3.5,0.9,5.3c0,1.8,0,3.5,0,5.3c-0.2,1.4-0.4,2.9-0.7,4.3
					c-3.1,13.9-11.3,23.3-25.1,27.5C314.7,271.4,312.9,271.6,311.1,271.9z"/>
				<path class="st4" d="M216,157.8c0,0-35.1,6.8-35.1,44.8l8-8C189,194.7,187.1,174,216,157.8z"/>
				<path class="st4" d="M181,202.7c0,0-24.6,8-23.8,37c0.8,29,32.8,32.3,32.8,32.3s-26-10.3-26-33.3S181,202.7,181,202.7z"/>
				<path class="st5" d="M198,200.7c0,0,3-26,26-35"/>
			</g>
			<polygon class="st6" points="233.5,238.7 264.5,238.7 251.5,264.7 276.5,264.7 230.5,315.7 240.5,281.7 217.5,281.7 			"/>
			<polygon class="st7" points="233.5,238.7 264.5,238.7 251.5,264.7 276.5,264.7 230.5,315.7 240.5,281.7 217.5,281.7 			"/>
			<path class="st8" d="M165.2,228c0,0-2.6,39.2,54.6,43.9H190C190,271.9,155.5,261.4,165.2,228z"/>
			<g class="st9">
				<circle class="st6" cx="285.5" cy="201.2" r="18.5"/>
				<circle class="st6" cx="304.5" cy="237.2" r="31.5"/>
			</g>
		</g>
	</g>
</g>
</svg>
